<svg width="264" height="217" viewBox="0 0 264 217" fill="none" xmlns="http://www.w3.org/2000/svg">
<path d="M27.0625 51.1683C41.5529 60.9164 74.4856 96.2203 89.2394 105.968C80.5452 86.7356 58.6779 40.3664 55.7798 19.8164" fill="#D7E3F7"/>
<path d="M21.2678 62.7626C20.7409 61.7087 21.0044 60.128 21.7948 59.3376C22.5852 58.5472 23.639 57.7568 24.6928 56.9664C16.2621 60.9183 6.514 57.2299 2.82554 48.7991C1.77169 46.428 1.24477 43.5299 2.56208 41.4222C3.87938 39.3145 6.77746 37.4703 8.88515 38.7876C8.35823 39.3145 7.30438 39.3145 6.77746 39.051C4.93323 38.2607 1.24477 31.9376 1.77169 24.8241C2.56208 11.9145 14.9448 9.54335 25.2198 19.028C24.6928 15.603 24.6928 11.9145 26.0102 8.75296C28.6448 1.90296 35.7582 -0.468193 42.0813 4.80104C44.4525 6.90873 46.2967 9.54335 47.8775 12.178C49.1948 8.4895 53.4102 6.38181 57.3621 7.43565C64.2121 9.27988 67.6371 18.2376 62.1044 26.6683C62.3679 24.8241 65.0025 24.5607 66.3198 25.878C69.7448 30.0933 62.8948 45.1107 49.1948 46.1645C51.3025 48.5357 53.6736 51.4337 52.8832 54.3318C52.0928 57.2299 48.4044 58.5472 45.5063 57.7568C41.2909 56.9664 39.7102 54.0683 38.6563 54.0683C37.339 54.0683 36.5486 57.7568 35.7582 59.0741C31.2794 65.6607 22.8486 65.9241 21.2678 62.7626Z" fill="#E9F1FF"/>
<path d="M213.33 31.6719C207.271 48.0065 180.661 88.3161 174.602 104.914C191.2 92.0046 230.982 59.8623 250.742 52.2219" fill="#D7E3F7"/>
<path opacity="0.1" d="M111.634 216.36C152.812 216.36 186.193 209.519 186.193 201.08C186.193 192.64 152.812 185.799 111.634 185.799C70.4557 185.799 37.0742 192.64 37.0742 201.08C37.0742 209.519 70.4557 216.36 111.634 216.36Z" fill="#0A0A0A"/>
<path d="M197.259 129.945C197.259 130.208 197.259 130.208 197.259 129.945V129.945ZM200.947 149.177C200.684 149.177 200.684 149.177 200.947 149.177V149.441C200.947 152.602 199.63 158.662 198.049 162.614C196.732 166.039 193.57 173.152 189.882 177.631C181.715 187.116 173.811 197.127 161.692 203.187C141.669 212.935 121.645 213.725 99.7782 210.037H99.5147C98.9878 210.037 96.8801 209.51 96.3532 209.247C95.8263 208.983 95.5628 208.983 95.2993 208.983C55.2532 195.547 43.6609 176.05 39.709 172.625C39.4455 172.099 36.5474 167.62 35.4936 165.249C35.4936 164.985 30.7513 155.764 30.7513 153.656C28.1166 142.854 27.5897 132.579 28.907 121.514C29.1705 118.352 32.859 105.706 37.0743 100.174C44.1878 90.4255 54.9897 93.3236 65.0013 92.7966C65.7916 92.7966 66.582 93.3236 67.3724 93.0601C67.8993 93.0601 69.2166 92.5332 69.4801 92.0063C69.7436 91.4793 69.2166 91.2159 68.9532 90.9524C68.4263 90.6889 68.1628 90.9524 67.6359 90.9524C68.4263 90.162 70.2705 91.4793 71.0609 90.4255C71.5878 89.8986 71.0609 89.1082 70.534 88.5812C70.007 88.0543 69.4801 87.5274 69.7436 86.737C74.2224 88.5813 74.7493 88.8447 75.2763 88.3178C76.3301 87.5274 75.2763 86.2101 75.2763 83.312C75.2763 83.0486 75.2763 82.5216 75.5397 82.5216C76.0666 82.2582 76.5936 82.7851 76.857 83.312C77.1205 83.8389 77.384 84.6293 77.9109 85.1562C78.4378 85.6832 79.4916 85.9466 79.7551 85.4197C80.0186 85.1563 80.0186 84.8928 80.282 81.9947C80.282 81.4678 80.282 81.2043 80.8089 80.9409C81.0724 80.6774 81.5993 81.2043 81.8628 81.4678C82.1263 81.9947 81.8628 82.2582 82.1263 82.7851C82.3897 83.8389 83.4436 84.3659 84.4974 84.3659C87.3955 84.3659 88.9763 81.2043 102.676 83.312C116.903 85.4197 119.538 85.1562 131.13 76.7255C135.345 73.5639 140.088 71.4563 144.83 69.8755C149.572 68.2947 153.524 68.5582 158.267 68.0312H158.53C165.38 68.5582 173.02 70.4024 179.08 73.3005C179.344 73.3005 179.344 73.3005 179.607 73.5639C180.134 73.8274 180.661 74.0909 180.924 74.3543C183.295 75.9351 184.613 78.0428 186.984 80.1505L187.247 80.4139C188.565 81.9947 189.619 83.312 190.409 85.1562C195.678 99.6466 196.469 114.137 198.049 130.208C198.049 131.525 199.367 137.322 199.367 137.585C199.367 137.849 199.894 140.22 200.157 140.747C199.894 142.591 200.684 146.279 200.947 149.177Z" fill="#E9F1FF"/>
<path d="M200.948 149.177C200.685 149.177 200.685 149.177 200.948 149.177V149.44C200.948 152.602 199.631 158.661 198.05 162.613C196.733 166.038 193.571 173.152 189.883 177.63C181.715 187.115 173.812 197.127 161.692 203.186C141.669 212.934 121.646 213.725 99.7789 210.036H99.5154C98.9885 210.036 96.8808 209.509 96.3539 209.246C95.827 208.982 95.5635 208.982 95.3 208.982C73.4327 201.605 56.5712 192.121 41.5539 174.732C41.027 173.942 40.2366 173.152 39.7096 172.625C38.6558 170.78 36.2846 167.092 35.4943 165.248C35.4943 164.721 33.9135 162.35 31.2789 154.973C31.0154 154.446 31.0154 154.182 30.752 153.919C32.5962 155.236 33.65 156.817 35.7577 157.871C57.3616 169.2 76.0673 166.565 96.8808 157.08C129.813 142.063 139.825 148.913 155.369 113.873C163.8 94.9035 175.129 93.8497 177.5 73.5632C178.027 73.8266 179.608 74.3535 179.871 74.8805C180.398 75.1439 181.452 76.7247 181.979 76.7247C182.506 76.7247 183.823 75.1439 184.35 74.617C183.296 72.7728 183.033 70.6651 183.823 68.8208C184.613 66.9766 186.194 65.3959 188.039 64.6055C187.512 67.5035 187.775 70.4016 188.302 73.0362C188.565 73.8266 188.829 74.617 189.356 74.617C189.883 74.617 190.146 74.0901 190.673 73.8266C191.2 73.2997 192.254 73.2997 192.781 73.8266C195.152 75.4074 192.517 77.2516 191.99 78.8324C191.464 80.6766 193.308 82.5209 195.152 82.7843C196.996 83.0478 198.84 81.9939 200.685 81.2035C201.738 84.3651 195.152 85.6824 195.942 88.8439C196.469 91.2151 199.894 90.9516 201.738 91.2151C204.373 91.4785 207.271 90.6882 209.379 89.1074C208.589 93.5862 204.9 97.0112 200.421 97.8016C199.631 97.8016 198.84 98.0651 198.84 98.8555C198.577 99.6459 199.631 100.173 200.421 100.173C201.212 100.173 202.265 100.436 202.529 100.963C202.792 101.49 202.529 102.017 202.002 102.28C201.738 102.544 201.212 102.807 200.685 103.071C192.517 106.496 195.679 110.975 195.942 116.244L197.26 130.734V130.998C197.26 131.525 197.787 133.896 197.787 134.423C198.05 136.004 198.577 137.321 198.577 137.848C198.84 138.638 199.104 140.746 199.367 141.009C199.894 142.59 200.685 146.279 200.948 149.177Z" fill="#C5D6EF"/>
<path d="M129.813 140.218C130.867 141.008 131.921 141.535 132.975 142.062C137.981 144.697 142.196 145.751 148.256 146.804C152.471 147.331 159.321 149.703 163.01 146.014C164.59 144.17 163.273 142.853 163.8 140.481C164.063 138.11 163.8 135.476 164.063 132.314C164.327 126.518 165.117 119.668 167.752 114.135C168.279 113.081 168.542 111.764 168.015 110.974C163.8 100.962 158.531 92.268 148.519 87.5257C147.465 86.9987 145.885 87.7891 145.094 89.1064C137.981 99.6449 139.035 114.135 129.287 123.356C127.969 124.674 127.442 124.674 127.969 124.937C131.658 128.099 129.813 131.787 129.287 136.266C129.023 136.793 128.76 139.428 129.813 140.218ZM189.883 177.366C181.979 187.905 173.021 196.072 161.956 203.185C160.112 203.976 158.267 204.766 156.423 205.293C155.633 201.605 154.315 198.18 152.735 195.018C152.471 194.755 152.735 194.228 152.998 193.964C160.902 186.851 168.015 179.21 174.075 170.516C174.865 169.462 179.871 172.36 190.937 167.881C191.463 167.618 191.99 167.881 191.99 168.672C191.463 171.57 190.937 174.205 189.883 177.366C190.146 177.103 189.883 177.103 189.883 177.366ZM117.694 188.168C113.479 177.366 109.79 166.301 107.156 154.708C93.9827 154.972 81.6 158.397 68.6904 160.241C65.7923 166.828 63.948 173.414 62.8942 180.528C72.1154 187.905 81.8634 193.964 92.6654 198.706C101.36 196.599 109.79 193.437 117.694 188.168ZM88.1865 98.0641C89.5038 111.237 85.8154 125.201 87.923 138.637C88.1865 140.218 88.45 142.589 87.6596 143.643C77.9115 154.708 66.8461 141.272 57.098 135.739C55.7807 135.212 54.4634 134.422 53.4096 132.841C49.1942 126.255 45.2423 118.614 42.0807 111.237C41.5538 109.92 41.5538 108.339 42.0807 107.549C46.0327 99.118 53.9365 98.8545 61.8404 95.9564C62.3673 95.693 62.6307 95.693 63.1577 95.693C71.0615 97.0103 77.6481 95.693 85.5519 95.166C86.6057 95.166 87.923 95.693 88.1865 98.0641ZM144.304 69.6103C144.567 70.6641 145.094 71.4545 145.885 72.2449C139.298 76.7237 134.819 82.5199 130.867 89.3699C116.377 105.968 117.694 101.489 102.677 89.1064C102.94 86.9987 103.204 85.1545 103.204 83.0468C115.85 86.4718 120.329 84.6276 130.867 76.4603C134.029 73.8257 138.508 71.718 142.723 70.1372C147.202 68.5564 152.735 68.5564 157.477 68.293C153.525 69.0834 149.573 70.1372 145.885 71.9814M197.787 133.895C195.679 130.47 193.835 126.781 192.254 122.829C190.673 118.878 188.565 115.189 187.512 110.974C190.146 103.86 191.727 97.2737 191.2 90.1603C196.206 106.758 196.469 126.781 197.26 130.47C197.26 131.26 197.523 133.104 197.787 133.895Z" fill="#0D1A67"/>
<path d="M73.1698 166.829C63.4217 158.135 55.2544 149.968 54.9909 134.95C54.9909 134.687 55.2544 134.16 55.5178 134.16C55.7813 134.16 56.0447 134.423 56.3082 134.687C56.5717 149.177 64.4755 157.344 73.9601 165.775C74.7505 166.302 73.9601 167.356 73.1698 166.829ZM83.1813 140.219C98.1986 137.848 115.851 129.681 130.341 123.358L134.556 121.25C134.82 120.987 135.347 121.25 135.347 121.514C135.61 121.777 135.347 122.304 135.083 122.304L130.604 124.412C116.114 130.998 98.1986 138.902 83.1813 141.273C82.3909 141.537 82.1274 140.219 83.1813 140.219ZM83.4447 99.383C87.3967 85.156 93.7197 85.156 107.683 90.6887C108.474 90.9522 107.947 92.2695 107.156 92.006C93.4563 86.7368 88.1871 86.7368 84.4986 99.9099C84.7621 100.964 83.1813 100.7 83.4447 99.383ZM128.76 88.581C135.083 87.5272 141.143 84.8926 147.729 86.7368C147.993 86.7368 148.256 87.2637 148.256 87.5272C148.256 87.7907 147.729 88.0541 147.466 88.0541C142.987 86.7368 138.772 87.7907 134.293 88.8445C132.449 89.3714 130.868 89.6349 129.024 89.8983C127.97 89.8983 127.97 88.581 128.76 88.581ZM164.327 113.61C164.327 113.346 164.327 112.819 164.854 112.819C172.231 110.185 179.872 110.185 187.512 110.448C188.302 110.448 188.302 111.766 187.512 111.766C180.135 111.502 172.758 111.766 165.381 114.137C164.854 114.137 164.327 114.137 164.327 113.61ZM173.812 174.733C171.441 162.614 167.752 154.183 160.902 146.806C160.639 146.543 160.639 146.016 160.902 145.752C161.166 145.489 161.693 145.489 161.956 145.752C168.806 153.393 173.022 162.087 175.129 174.469C175.393 175.523 174.076 175.787 173.812 174.733ZM99.7794 164.721C111.108 146.543 112.162 142.064 133.502 139.956C134.029 139.956 134.293 140.22 134.293 140.483C134.293 140.746 134.029 141.273 133.766 141.273C112.952 143.381 112.162 147.333 100.833 165.512C100.306 166.039 99.2524 165.248 99.7794 164.721ZM134.82 194.756C127.706 192.648 121.12 188.96 114.006 186.325C113.216 186.062 113.743 184.744 114.533 185.008C129.814 191.068 137.454 197.654 155.897 193.439C156.687 193.175 156.951 194.493 156.16 194.756C152.472 195.81 142.197 196.864 134.82 194.756ZM65.7928 182.9H63.9486C54.7274 181.319 47.0871 177.894 39.4467 172.625C39.4467 172.625 39.7101 173.152 38.9197 172.098C38.1294 170.781 36.0217 167.356 35.2313 165.512C43.9255 174.469 53.6736 179.212 66.0563 181.056C67.6371 181.056 67.1101 182.9 65.7928 182.9ZM99.7794 210.037C98.4621 209.773 97.4082 209.51 96.0909 209.246C93.7198 205.821 91.8755 202.66 90.2948 198.971C89.7678 197.654 91.6121 196.337 92.4024 197.654C94.5101 202.133 96.6178 206.085 99.7794 210.037ZM64.4755 97.2753C64.4755 97.5387 63.6851 97.5387 63.4217 97.2753C63.1582 97.0118 63.1582 97.0118 62.8947 97.0118C62.6313 96.7483 62.3678 96.4849 62.6313 96.2214C63.4217 94.9041 63.6851 93.5868 65.0024 92.7964C65.5294 92.533 66.5832 93.0599 67.3736 93.0599C66.0563 94.3772 65.2659 95.6945 64.4755 97.2753ZM198.314 161.033C198.314 161.033 198.841 159.979 197.787 161.823C196.206 164.721 190.674 171.571 189.62 171.044C189.356 170.781 189.356 171.045 189.093 170.781C188.829 170.518 188.829 169.991 189.093 169.464C194.362 163.404 198.314 157.081 200.685 149.441C200.422 152.602 199.895 156.554 198.314 161.033ZM186.458 80.1503C186.195 80.1503 186.195 80.1503 186.195 79.8868C173.022 69.0849 159.585 67.7676 144.041 73.3003C143.251 73.5637 142.987 73.8272 142.724 73.0368C142.46 72.2464 142.987 71.983 143.777 71.456C148.256 69.3483 152.735 68.558 157.741 67.7676H158.004C169.07 69.0849 178.291 71.983 186.458 80.1503ZM44.189 110.975C37.6024 112.556 33.387 117.035 28.9082 121.514L29.6986 117.562C33.914 113.61 38.1294 109.921 43.3986 107.287C43.9255 107.023 44.4524 108.868 44.7159 109.394C44.7159 109.921 44.7159 110.712 44.189 110.975Z" fill="#0D1A67"/>
<path d="M200.684 28.7735C201.738 27.9831 203.055 27.9831 204.109 28.5101C205.163 29.037 206.217 29.8274 207.007 30.6178C201.211 23.5043 202.528 12.9658 209.905 7.43314C212.013 5.85237 214.647 4.79852 217.019 5.32545C219.39 5.85237 221.761 8.48699 221.234 10.8581C216.228 8.22352 233.09 -4.68609 242.838 2.16391C247.317 5.32545 249.424 12.4389 244.155 21.9235C247.317 20.6062 251.005 19.8158 254.43 20.3428C257.855 20.8697 261.28 22.7139 262.597 25.8754C263.915 28.7735 263.388 32.1985 261.807 35.0966C260.49 37.9947 258.119 40.3658 256.011 42.4735C259.963 42.737 262.861 46.6889 262.861 50.3774C262.861 57.4908 254.694 62.7601 245.209 59.3351C247.053 59.0716 247.844 61.7062 246.79 63.287C243.628 67.7658 227.294 64.3408 223.078 51.4312C221.497 54.0658 219.126 56.9639 215.965 56.9639C213.067 56.7004 210.959 53.5389 210.696 50.6408C210.696 46.4254 213.067 44.0543 212.803 43.0004C212.54 41.6831 208.588 41.9466 207.271 41.4197C200.157 39.0485 198.049 30.8812 200.684 28.7735Z" fill="#E9F1FF"/>
<path d="M25.7452 66.4508C22.0567 65.1335 19.6856 60.3912 22.5837 56.4392C13.3625 58.8104 6.77598 56.4392 3.08752 52.4873C-0.0740221 49.0623 -0.864406 44.0565 0.979825 40.3681C3.08752 36.4161 8.35675 34.3085 12.3087 36.1527C13.0991 36.4162 12.5721 37.7335 11.7817 37.2065C8.35675 35.6258 3.8779 37.47 2.29713 40.6315C0.716363 43.7931 1.50675 48.2719 4.14136 51.17C6.51252 53.8046 10.4644 55.6488 14.6798 55.6488C20.476 55.9123 25.4818 53.5412 26.5356 53.2777L26.7991 54.595C26.2721 54.8585 26.0087 54.8585 25.4818 55.1219C23.901 55.9123 22.5837 57.7565 22.5837 59.6008C22.5837 61.9719 23.901 64.0796 26.2721 64.87C29.1702 65.9238 32.0683 64.0796 33.6491 62.2354C35.4933 59.8642 36.5471 56.9662 37.0741 54.3315C37.3375 53.5411 38.6548 53.8046 38.3914 54.595C37.8644 57.4931 36.8106 60.6546 34.7029 63.2892C32.5952 65.9238 28.9067 67.5046 25.7452 66.4508ZM42.6068 45.1104C41.8164 44.8469 42.3433 43.5296 43.1337 43.7931C52.0914 48.0085 63.4202 42.7392 67.1087 31.4104C67.6356 29.5661 67.8991 27.9854 67.3721 26.9315C66.8452 25.6142 65.2645 24.8238 64.2106 25.6142C63.4202 26.4046 62.6298 25.3508 63.4202 24.8238C65.5279 23.2431 70.7971 25.0873 68.426 32.2008C64.7375 44.0565 52.3548 49.5892 42.6068 45.1104ZM29.9606 30.3565C28.9068 24.0335 24.9548 18.2373 19.1587 15.3392C18.3683 15.0758 18.8952 13.7585 19.6856 14.2854C25.7452 17.4469 30.2241 23.5065 31.2779 30.3565C31.5414 31.1469 30.2241 31.4104 29.9606 30.3565ZM48.1395 19.8181C48.4029 16.92 47.6125 13.7585 45.7683 11.3873C45.2414 10.5969 46.2952 9.80653 46.8221 10.5969C48.6664 13.2315 49.7202 16.6565 49.4568 19.8181C49.4568 20.8719 48.1395 20.6085 48.1395 19.8181Z" fill="#C5D6EF"/>
<path d="M24.6904 46.6913C23.6365 46.4278 23.1096 45.9009 22.5827 44.847C21.2654 41.6855 23.6365 38.5239 27.5884 38.5239C29.6961 38.5239 31.5404 39.0509 33.1211 39.5778C33.9115 39.8413 33.6481 41.1586 32.5942 40.8951C31.0134 40.3682 29.1692 39.8413 27.5884 39.8413C25.7442 39.8413 24.1634 40.6316 23.6365 41.9489C23.1096 43.2663 23.6365 45.1105 24.9538 45.374C25.7442 45.6374 25.4808 46.6913 24.6904 46.6913ZM41.025 35.0989C40.4981 35.0989 40.2346 34.8355 40.2346 34.3086C40.4981 31.6739 42.3423 29.0393 44.7134 28.2489C47.0846 27.1951 50.2461 27.9855 52.0904 29.8297C52.6173 30.3566 51.8269 31.4105 51.0365 30.6201C49.4557 29.0393 47.0846 28.5124 44.9769 29.3028C42.8692 30.0932 41.5519 32.2009 41.2884 34.3086C41.8154 34.8355 41.5519 35.0989 41.025 35.0989ZM58.9404 18.7643C58.6769 17.7105 57.6231 16.9201 56.5692 16.6566C55.7788 16.3932 56.0423 15.0759 56.8327 15.3393C58.4134 15.6028 59.7308 16.6566 60.2577 18.2374C60.5211 19.0278 59.2038 19.5547 58.9404 18.7643Z" fill="#C5D6EF"/>
<path d="M213.594 44.5826C208.588 43.7922 201.738 40.6307 199.894 35.8884C198.84 33.5173 199.367 30.8826 200.948 29.5653C202.792 27.7211 205.954 27.9846 207.271 30.0922C207.798 30.8826 206.481 31.4096 206.217 30.8826C205.954 30.3557 205.163 29.8288 204.373 29.8288C201.475 29.3019 199.894 32.7269 200.948 35.6249C202.529 39.8403 209.115 42.7384 213.594 43.5288C213.857 43.5288 214.121 43.7922 214.121 44.3192C214.384 44.3192 213.857 44.5826 213.594 44.5826Z" fill="#C0D3ED"/>
<path d="M204.109 25.3501C203.582 22.452 203.318 19.5539 203.582 16.6558C204.899 5.327 216.755 3.74623 222.815 11.3866C223.341 12.177 222.288 12.9674 221.761 12.177C218.336 7.4347 212.276 6.64431 208.324 9.54239C203.845 13.2309 204.636 19.8174 205.426 24.8232C205.426 25.0866 205.163 25.6135 204.899 25.6135C204.636 26.1405 204.372 25.877 204.109 25.3501ZM235.197 32.4635C237.832 29.0385 240.73 25.6135 242.574 21.6616C247.58 10.8597 242.311 1.902 235.461 1.37508C231.245 1.11162 227.03 4.00969 223.341 7.17123C222.551 7.69816 221.761 6.64431 222.551 6.11739C226.503 2.69239 230.718 -0.469152 235.724 0.0577708C240.203 0.584694 244.155 4.00969 245.472 9.01546C246.526 12.9674 245.999 17.7097 243.891 22.452C242.047 26.6674 239.149 30.0924 236.251 33.5174C235.724 34.0443 234.67 33.2539 235.197 32.4635ZM247.053 44.0559C246.263 43.7924 246.526 42.7385 247.317 42.7385C252.322 43.7924 257.591 41.6847 260.226 37.7328C263.124 33.5174 262.861 27.7212 259.436 24.2962C256.011 20.6078 249.951 20.3443 246.526 23.5058C245.999 24.0328 244.945 23.2424 245.736 22.452C249.688 18.7635 256.801 19.027 260.49 23.2424C264.178 27.1943 264.441 33.7809 261.28 38.2597C258.645 42.4751 252.849 45.1097 247.053 44.0559ZM238.886 53.277C238.622 52.4866 239.94 51.9597 240.203 52.7501C242.838 59.8635 252.322 61.7078 257.328 55.9116C257.591 55.6482 257.855 55.6482 258.382 55.9116C258.645 56.1751 258.645 56.4385 258.382 56.9655C252.586 63.552 241.784 61.7078 238.886 53.277Z" fill="#C5D6EF"/>
<path d="M240.204 63.8153C232.036 63.8153 224.396 58.0192 222.025 50.1153C221.761 49.325 223.079 48.798 223.342 49.8519C225.45 57.2288 232.563 62.498 240.204 62.498C240.731 62.498 240.994 62.7615 240.994 63.025C240.994 63.8153 240.731 63.8153 240.204 63.8153Z" fill="#C0D3ED"/>
<path d="M223.342 36.6795C222.552 34.5718 221.761 32.7276 220.18 31.6738C218.6 30.6199 216.228 31.1468 215.702 32.7276C215.438 33.518 214.121 33.2545 214.384 32.4641C215.175 29.8295 218.6 29.3026 220.971 30.6199C223.078 31.9372 224.132 34.5718 224.659 36.4161C224.659 36.6795 224.659 37.2065 224.396 37.2065C223.869 37.2065 223.342 36.943 223.342 36.6795ZM237.305 43.2661C238.096 40.6315 235.461 37.9968 232.827 39.0507C232.036 39.3141 231.509 38.2603 232.3 37.7334C235.988 36.1526 239.677 39.5776 238.623 43.5295C238.359 44.0565 237.042 44.3199 237.305 43.2661ZM243.892 35.3622L242.575 32.9911C242.048 32.2007 243.365 31.6738 243.628 32.2007L244.946 34.5718C245.209 34.8353 244.946 35.3622 244.682 35.3622C244.419 35.6257 244.155 35.6257 243.892 35.3622ZM233.617 51.1699L230.455 48.2718C229.928 47.7449 230.719 46.6911 231.246 47.218L234.407 50.1161C234.671 50.3795 234.671 50.9065 234.407 51.1699C234.144 51.4334 233.88 51.4334 233.617 51.1699Z" fill="#C5D6EF"/>
<path d="M196.731 73.3008C199.629 68.0316 203.054 63.0258 207.006 58.2835C207.269 58.0201 207.533 58.0201 208.059 58.2835C208.323 58.547 208.323 58.8105 208.059 59.3374C204.108 63.5528 200.683 68.5585 197.784 73.8278C197.521 74.6182 196.204 74.0912 196.731 73.3008ZM207.269 70.6662L212.802 64.6066C213.329 64.0797 214.383 64.8701 213.856 65.397L208.323 71.7201C207.796 72.247 206.742 71.4566 207.269 70.6662Z" fill="#E9F1FF"/>
<path d="M63.9483 80.1498L54.2002 65.1325C53.6733 64.3421 54.7272 63.8151 55.2541 64.3421L65.0022 79.3594C65.5291 80.1498 64.4753 80.9401 63.9483 80.1498ZM65.5291 68.8209L61.3137 59.8632C61.0503 59.0728 62.1041 58.5459 62.631 59.3363L66.8464 68.294C67.1099 69.0844 66.056 69.6113 65.5291 68.8209Z" fill="#C5D6EF"/>
<path d="M84.4983 59.8625C84.4983 59.5991 72.6425 22.9779 71.3252 17.9722C70.7983 16.3914 71.5887 15.0741 72.906 14.5472C81.0733 10.0683 92.6656 13.2299 95.8271 22.9779C97.4079 27.7202 96.881 32.1991 92.9291 36.9414C92.4021 37.7318 91.3483 38.5222 90.031 39.8395C95.0367 40.3664 99.2521 43.001 100.833 48.0068C103.731 56.701 95.0367 64.0779 86.3425 62.7606C85.0252 62.4972 84.2348 61.4433 84.4983 59.8625ZM82.654 35.8875C82.9175 36.151 82.9175 36.6779 83.4444 37.2049C84.2348 37.9952 85.0252 37.4683 85.8156 36.6779C89.7675 32.9895 92.1387 29.8279 90.5579 24.5587C89.2406 20.8702 85.5521 17.9722 79.756 18.4991C78.1752 19.026 77.6483 20.0799 77.9117 20.8702L82.654 35.8875ZM91.0848 57.2279C91.3483 56.9645 93.9829 56.701 95.0367 54.3299C95.8271 52.7491 95.8271 50.9049 95.3002 49.5875C94.5098 46.9529 91.6117 46.1625 88.9771 45.8991C87.6598 45.6356 86.606 46.1625 86.3425 47.7433C86.0791 48.7972 86.606 49.3241 87.6598 52.7491C88.1867 53.0125 88.7137 57.4914 91.0848 57.2279ZM112.952 49.0606C108.21 42.4741 104.521 31.4087 105.048 22.451C106.102 7.96062 119.539 -3.10476 128.496 16.9183C132.185 25.0856 133.239 35.8875 130.868 44.8452C127.969 56.9645 119.275 57.4914 112.952 49.0606ZM110.581 23.2414C110.318 30.8818 113.743 40.1029 117.168 44.8452C121.383 50.9049 123.754 49.5875 125.335 44.3183C127.706 35.6241 126.389 24.0318 122.437 16.1279C117.694 7.17024 110.844 13.7568 110.581 23.2414ZM142.196 46.6895C138.771 39.576 137.191 27.9837 139.562 19.026C143.514 4.53563 158.794 -2.8413 163.537 18.2356C165.381 26.9299 164.591 37.9952 160.375 46.1625C155.369 57.2279 146.939 56.1741 142.196 46.6895ZM144.831 20.8702C142.987 28.5106 144.568 37.9952 147.202 43.2645C149.837 49.0606 152.471 50.1145 155.369 44.3183C159.585 36.151 160.375 24.2952 158.004 16.1279C154.843 6.11639 146.939 12.176 144.831 20.8702ZM171.441 50.1145C169.333 42.2106 170.123 30.6183 174.339 22.451C179.608 11.6491 192.781 5.85293 196.733 18.2356C199.631 27.4568 197.26 43.001 189.619 53.0126C182.243 63.0241 174.075 60.126 171.441 50.1145ZM178.818 25.3491C175.393 32.726 175.129 43.7914 177.237 49.3241C178.818 53.8029 180.662 55.3837 184.614 50.6414C190.146 43.5279 193.308 32.1991 192.518 23.5049C191.464 12.4395 182.506 17.1818 178.818 25.3491Z" fill="#3498DB"/>
</svg>
