<svg width="365" height="93" viewBox="0 0 365 93" fill="none" xmlns="http://www.w3.org/2000/svg">
<g opacity="0.2" clip-path="url(#clip0_14973_25340)">
<path d="M281.209 80.3713L303.63 64.4668L306.724 90.3209L306.492 90.4865L306.358 90.4402L281.608 80.5525L281.209 80.3713ZM303.232 65.3639L282.225 80.2664L306.159 89.8199L303.232 65.3639Z" fill="white"/>
<path d="M281.21 80.3706L281.407 80.2319L278.379 54.9169L278.611 54.752L278.745 54.7957L303.705 64.7578L303.651 65.0614L303.567 65.1238L281.94 80.4674L281.964 80.6698L281.741 80.5961L281.734 80.6105L281.452 80.4968L281.456 80.483L281.21 80.3706ZM278.942 55.4154L281.872 79.9014L302.905 64.9789L278.942 55.4154Z" fill="white"/>
<path d="M299.918 39.6543L322.338 23.751L325.432 49.6045L325.199 49.7694L325.068 49.7226L300.316 39.8355L299.918 39.6543ZM321.941 24.6475L300.934 39.5493L324.868 49.1022L321.941 24.6475Z" fill="white"/>
<path d="M303.247 65.347L300.125 39.2441L300.63 39.4222L325.493 49.3468L325.377 49.6485L325.314 49.696L303.247 65.347ZM300.721 39.9994L303.644 64.4517L324.651 49.5511L300.721 39.9994Z" fill="white"/>
<path d="M278.508 55.2087L278.318 54.9413L300.152 39.4534L300.127 39.2441L300.352 39.3235L300.356 39.3135L300.64 39.4272L300.636 39.4378L300.884 39.5484L300.685 39.6889L303.714 65.0027L303.482 65.1676L303.347 65.1227L278.508 55.2087ZM300.22 40.0194L279.186 54.9401L303.15 64.5042L300.22 40.0194Z" fill="white"/>
<path d="M309.094 115.463L309.295 115.32L306.268 90.0071L306.501 89.8428L306.633 89.8871L331.471 99.8023L331.659 100.068L331.456 100.213L309.827 115.557L309.852 115.761L309.63 115.685L309.625 115.699L309.34 115.584L309.344 115.573L309.094 115.463ZM306.832 90.5075L309.759 114.991L330.792 100.072L306.832 90.5075Z" fill="white"/>
<path d="M303.209 65.0897L303.217 64.7842L303.319 64.713L325.385 49.0596L328.51 75.1642L328.005 74.9862L303.209 65.0897ZM324.989 49.9561L303.98 64.8585L327.913 74.4114L324.989 49.9561Z" fill="white"/>
<path d="M327.75 74.8565L350.172 58.9551L353.265 84.8073L353.032 84.9723L352.902 84.9248L328.149 75.0371L327.75 74.8565ZM349.775 59.8503L328.766 74.7503L352.7 84.3026L349.775 59.8503Z" fill="white"/>
<path d="M327.751 74.8569L327.949 74.7176L324.92 49.4026L325.153 49.2383L325.289 49.2826L350.171 59.2178L350.26 59.5058L350.112 59.6114L328.482 74.9537L328.507 75.1643L328.284 75.0849L328.279 75.0956L327.994 74.9825L328.001 74.9694L327.751 74.8569ZM325.485 49.9011L328.414 74.3871L349.448 59.4684L325.485 49.9011Z" fill="white"/>
<path d="M331.084 100.55L327.961 74.4395L328.467 74.6231L353.218 84.5034L353.288 84.7957L353.15 84.8976L331.084 100.55ZM328.558 75.1991L331.483 99.6545L352.491 84.7514L328.558 75.1991Z" fill="white"/>
<path d="M306.295 90.6542L303.203 64.8L303.436 64.6357L303.564 64.6857L328.316 74.5709L328.717 74.7483L306.295 90.6542ZM303.769 65.308L306.692 89.7577L327.698 74.8571L303.769 65.308Z" fill="white"/>
<path d="M330.99 100.269L331.072 99.9641L331.146 99.9111L353.211 84.2607L356.333 110.364L355.829 110.184L330.99 100.269ZM352.814 85.156L331.807 100.057L355.738 109.606L352.814 85.156Z" fill="white"/>
<path d="M355.578 110.055L355.774 109.917L352.748 84.6028L352.981 84.4385L353.114 84.4841L378.031 94.4274L378.054 94.7248L377.938 94.8091L356.308 110.153L356.333 110.365L356.109 110.283L356.105 110.295L355.822 110.18L355.826 110.168L355.578 110.055ZM353.313 85.102L356.241 109.585L377.275 94.6636L353.313 85.102Z" fill="white"/>
<path d="M352.829 85.1388L349.734 59.2841L349.967 59.1191L350.098 59.1672L374.849 69.0518L375.252 69.2311L352.829 85.1388ZM350.3 59.7888L353.227 84.2423L374.232 69.3405L350.3 59.7888Z" fill="white"/>
<path d="M247.09 -5.18581L269.507 -21.0879L272.6 4.76813L272.368 4.93244L272.238 4.88497L247.485 -5.00402L247.09 -5.18581ZM269.111 -20.1914L248.104 -5.29013L272.037 4.2621L269.111 -20.1914Z" fill="white"/>
<path d="M250.42 20.5081L247.297 -5.6084L247.805 -5.41286L272.665 4.50798L272.548 4.81099L272.485 4.8572L250.42 20.5081ZM247.894 -4.83747L250.817 19.6129L271.823 4.7129L247.894 -4.83747Z" fill="white"/>
<path d="M225.675 10.3699L225.486 10.1013L247.321 -5.38661L247.295 -5.6084L247.524 -5.52032L247.526 -5.52594L247.809 -5.41098L247.804 -5.39725L248.043 -5.28291L247.854 -5.14984L250.879 20.1445L250.666 20.3345L250.515 20.2839L225.675 10.3699ZM247.39 -4.81998L226.356 10.1006L250.317 19.6654L247.39 -4.81998Z" fill="white"/>
<path d="M250.429 20.2702L250.34 19.9772L250.487 19.8729L272.554 4.2207L275.677 30.3216L275.175 30.1467L250.429 20.2702ZM272.157 5.11657L251.149 20.0178L275.083 29.5713L272.157 5.11657Z" fill="white"/>
<path d="M274.927 30.0124L275.118 29.8762L272.09 4.56435L272.323 4.39941L272.458 4.44315L297.382 14.394L297.39 14.6926L297.281 14.7726L275.651 30.1124L275.676 30.3217L275.451 30.243L275.446 30.2561L275.164 30.143L275.169 30.1261L274.927 30.0124ZM272.655 5.06289L275.583 29.5457L296.618 14.6283L272.655 5.06289Z" fill="white"/>
<path d="M253.465 45.8157L250.373 19.9628L250.605 19.7979L250.736 19.8447L275.486 29.7306L275.887 29.9105L253.465 45.8157ZM250.939 20.4651L253.863 44.9192L274.869 30.0186L250.939 20.4651Z" fill="white"/>
<path d="M343.393 9.92554L340.27 -16.1816L340.775 -15.9998L365.667 -6.06214L365.506 -5.76351L365.457 -5.72666L343.393 9.92554ZM340.866 -15.4245L343.791 9.03028L364.795 -5.87097L340.866 -15.4245Z" fill="white"/>
<path d="M318.604 0.0306129L315.512 -25.821L315.745 -25.9854L315.873 -25.9379L340.624 -16.0514L341.021 -15.8715L318.604 0.0306129ZM316.076 -25.3156L319.002 -0.864645L340.006 -15.7653L316.076 -25.3156Z" fill="white"/>
<path d="M318.648 -0.211734L318.461 -0.478498L340.296 -15.9708L340.27 -16.1807L340.494 -16.1001L340.497 -16.1094L340.781 -15.9957L340.777 -15.9814L341.021 -15.8708L340.828 -15.7346L343.854 9.58166L343.621 9.74659L343.489 9.70099L318.648 -0.211734ZM340.364 -15.4047L319.331 -0.480995L343.291 9.08248L340.364 -15.4047Z" fill="white"/>
<path d="M346.098 34.0099L346.295 33.8706L343.266 8.55749L343.499 8.39258L343.632 8.4363L368.558 18.3871L368.567 18.6858L368.459 18.7645L346.827 34.1074L346.852 34.3136L346.63 34.238L346.624 34.2492L346.342 34.1374L346.347 34.1236L346.098 34.0099ZM343.831 9.05667L346.76 33.5401L367.795 18.6214L343.831 9.05667Z" fill="white"/>
<path d="M297.261 15.2508L294.137 -10.8477L294.638 -10.6752L319.507 -0.748762L319.391 -0.447642L319.328 -0.401408L297.261 15.2508ZM294.732 -10.0992L297.658 14.3549L318.665 -0.546344L294.732 -10.0992Z" fill="white"/>
<path d="M297.361 14.9131L297.172 14.6444L319.441 -1.15332L322.565 24.947L322.065 24.7746L297.361 14.9131ZM319.045 -0.256823L298.039 14.6444L321.97 24.1979L319.045 -0.256823Z" fill="white"/>
<path d="M163.875 81.1758L186.292 65.2725L189.385 91.1279L189.152 91.2922L189.022 91.2447L164.268 81.3569L163.875 81.1758ZM185.896 66.1696L164.888 81.0721L188.821 90.6237L185.896 66.1696Z" fill="white"/>
<path d="M167.201 106.869L164.08 80.7646L164.584 80.9446L189.448 90.8679L189.331 91.1703L189.269 91.2165L167.201 106.869ZM164.675 81.52L167.599 105.972L188.607 91.0722L164.675 81.52Z" fill="white"/>
<path d="M142.46 96.7305L142.271 96.4637L164.106 80.9746L164.082 80.7646L164.306 80.844L164.309 80.834L164.593 80.9483L164.59 80.9596L164.839 81.0702L164.64 81.2107L167.668 106.524L167.435 106.69L167.301 106.645L142.46 96.7305ZM164.173 81.5412L143.139 96.4618L167.103 106.026L164.173 81.5412Z" fill="white"/>
<path d="M167.135 106.602L167.188 106.295L167.272 106.235L189.337 90.582L192.461 116.686L191.958 116.508L167.135 106.602ZM188.941 91.4779L167.934 106.379L191.868 115.932L188.941 91.4779Z" fill="white"/>
<path d="M191.704 116.381L191.904 116.239L188.875 90.925L189.108 90.7607L189.244 90.8045L214.128 100.74L214.216 101.028L214.068 101.134L192.436 116.476L192.462 116.686L192.239 116.607L192.234 116.618L191.95 116.504L191.953 116.492L191.704 116.381ZM189.439 91.4236L192.369 115.91L213.402 100.991L189.439 91.4236Z" fill="white"/>
<path d="M111.043 36.3373L133.461 20.4365L136.555 46.2901L136.322 46.455L136.192 46.4069L111.44 36.5179L111.043 36.3373ZM133.064 21.3318L112.058 36.2324L135.99 45.7859L133.064 21.3318Z" fill="white"/>
<path d="M114.374 62.0308L111.25 35.918L111.758 36.1085L136.606 46.0262L136.509 46.328L136.439 46.3798L114.374 62.0308ZM111.847 36.6839L114.77 61.1349L135.777 46.2349L111.847 36.6839Z" fill="white"/>
<path d="M89.6307 51.8909L89.4414 51.6242L111.277 36.1363L111.251 35.917L111.479 36.0026L111.483 35.9945L111.764 36.11L111.759 36.1244L111.999 36.2375L111.81 36.3718L114.835 61.6662L114.62 61.8561L114.469 61.8055L89.6307 51.8909ZM111.345 36.7029L90.3104 51.6223L114.272 61.187L111.345 36.7029Z" fill="white"/>
<path d="M114.374 61.7902L114.303 61.4928L136.508 45.7432L139.632 71.8453L139.13 71.6685L114.374 61.7902ZM136.111 46.639L115.104 61.5409L139.038 71.0925L136.111 46.639Z" fill="white"/>
<path d="M138.881 71.5364L139.074 71.3996L136.045 46.0864L136.279 45.9209L136.414 45.9652L161.253 55.8823L161.441 56.1478L161.237 56.2934L139.606 71.6345L139.632 71.845L139.406 71.7663L139.4 71.7782L139.118 71.6651L139.124 71.6488L138.881 71.5364ZM136.61 46.5837L139.54 71.0678L160.573 56.1504L136.61 46.5837Z" fill="white"/>
<path d="M117.419 87.3375L114.326 61.4846L114.559 61.3203L114.69 61.3672L139.441 71.2524L139.841 71.4323L117.419 87.3375ZM114.891 61.9888L117.816 86.4423L138.823 71.5404L114.891 61.9888Z" fill="white"/>
<path d="M83.5873 1.37623L80.4648 -24.7266L80.9659 -24.551L105.819 -14.6302L105.722 -14.329L105.652 -14.2766L83.5873 1.37623ZM81.0583 -23.9744L83.9846 0.480988L104.99 -14.4209L81.0583 -23.9744Z" fill="white"/>
<path d="M58.8423 -8.76263L58.6543 -9.03002L80.4876 -24.5198L80.4633 -24.7266L80.6863 -24.6485L80.6894 -24.6585L80.9731 -24.5473L80.9693 -24.5385L81.2261 -24.4292L81.0212 -24.2849L84.0474 1.03076L83.8144 1.19507L83.68 1.1507L58.8423 -8.76263ZM80.5557 -23.9538L59.5227 -9.03065L83.4826 0.532845L80.5557 -23.9538Z" fill="white"/>
<path d="M179.459 15.983L179.49 15.6768L201.649 -0.0390625L204.771 26.0662L204.265 25.8813L179.459 15.983ZM201.252 0.856196L180.244 15.7556L204.177 25.3059L201.252 0.856196Z" fill="white"/>
<path d="M204.02 25.7559L226.438 9.85254L229.523 35.6298L229.39 35.9066L229.17 35.8248L204.416 25.9364L204.02 25.7559ZM226.04 10.7484L205.035 25.6503L228.968 35.2032L226.04 10.7484Z" fill="white"/>
<path d="M204.018 25.7553L204.214 25.6173L201.186 0.301635L201.418 0.136719L201.551 0.182323L226.474 10.1306L226.483 10.4287L226.373 10.5086L204.746 25.8547L204.771 26.0658L204.543 25.9828L204.54 25.9927L204.256 25.8765L204.261 25.8653L204.018 25.7553ZM201.749 0.800808L204.678 25.2874L225.708 10.3655L201.749 0.800808Z" fill="white"/>
<path d="M207.348 51.4481L204.225 25.3447L204.727 25.5221L229.549 35.4317L229.497 35.7335L229.412 35.7947L207.348 51.4481ZM204.82 26.0994L207.746 50.5523L228.749 35.6523L204.82 26.0994Z" fill="white"/>
<path d="M182.559 41.5542L179.467 15.7001L179.699 15.5352L179.827 15.5851L204.579 25.4697L204.976 25.6509L182.559 41.5542ZM180.032 16.2061L182.956 40.6577L203.96 25.7571L180.032 16.2061Z" fill="white"/>
<path d="M182.242 41.1656L204.248 25.5521L204.224 25.3447L204.445 25.4241L204.45 25.4128L204.735 25.5253L204.729 25.539L204.975 25.6515L204.78 25.7895L207.808 51.1027L207.575 51.2676L207.441 51.2232L182.242 41.1656ZM204.315 26.1188L183.283 41.0419L207.243 50.6041L204.315 26.1188Z" fill="white"/>
<path d="M226.001 10.8438L222.879 -15.2559L223.381 -15.0803L248.221 -5.16572L248.145 -4.86397L248.068 -4.80587L226.001 10.8438ZM223.474 -14.5031L226.399 9.94794L247.407 -4.95081L223.474 -14.5031Z" fill="white"/>
<path d="M201.214 0.950798L198.121 -24.9021L198.354 -25.0664L198.483 -25.0183L223.236 -15.1324L223.637 -14.9532L201.214 0.950798ZM198.685 -24.3961L201.611 0.0555592L222.618 -14.8444L198.685 -24.3961Z" fill="white"/>
<path d="M201.258 0.70647L201.068 0.439076L222.904 -15.0488L222.879 -15.2568L223.104 -15.1775L223.108 -15.1881L223.391 -15.0775L223.386 -15.065L223.636 -14.9526L223.438 -14.8114L226.467 10.5024L226.234 10.6673L226.098 10.6236L201.258 0.70647ZM222.972 -14.4815L201.937 0.437838L225.901 10.0032L222.972 -14.4815Z" fill="white"/>
<path d="M225.961 10.5864L225.953 10.2821L226.062 10.2053L248.131 -5.44629L251.253 20.659L250.749 20.4791L225.961 10.5864ZM247.732 -4.54916L226.724 10.3502L250.658 19.9037L247.732 -4.54916Z" fill="white"/>
<path d="M229.039 36.1493L225.945 10.2964L226.178 10.1309L226.308 10.1784L251.06 20.0648L251.461 20.2441L229.039 36.1493ZM226.511 10.8L229.437 35.2535L250.444 20.3528L226.511 10.8Z" fill="white"/>
<path d="M132.977 21.7645L129.854 -4.34082L130.358 -4.16027L155.145 5.73308L155.152 6.03233L155.044 6.11292L132.977 21.7645ZM130.45 -3.58489L133.374 20.8686L154.381 5.96736L130.45 -3.58489Z" fill="white"/>
<path d="M176.127 -9.32925L198.548 -25.2363L201.641 0.618456L201.408 0.783392L201.28 0.734661L176.529 -9.15057L176.127 -9.32925ZM198.151 -24.3392L177.147 -9.43796L201.076 0.113659L198.151 -24.3392Z" fill="white"/>
<path d="M179.458 16.3597L176.336 -9.74121L176.839 -9.56629L201.607 0.320182L201.652 0.614439L201.526 0.707536L179.458 16.3597ZM176.931 -8.98841L179.855 15.4645L200.864 0.56321L176.931 -8.98841Z" fill="white"/>
<path d="M154.672 6.46697L151.578 -19.3872L151.811 -19.5527L151.942 -19.5046L176.694 -9.61754L177.089 -9.43699L154.672 6.46697ZM152.143 -18.8849L155.071 5.57047L176.075 -9.3314L152.143 -18.8849Z" fill="white"/>
<path d="M154.596 6.17371L154.648 5.87072L176.361 -9.53282L176.337 -9.74023L176.561 -9.66151L176.566 -9.67402L176.849 -9.56031L176.844 -9.5472L177.089 -9.43536L176.894 -9.29605L179.922 16.0165L179.689 16.182L179.556 16.1364L154.596 6.17371ZM176.43 -8.96743L155.397 5.95444L179.357 15.5167L176.43 -8.96743Z" fill="white"/>
<path d="M210.051 75.5321L210.249 75.3915L207.219 50.079L207.452 49.9141L207.587 49.9584L232.787 60.0179L210.781 75.6277L210.805 75.835L210.585 75.7582L210.58 75.7701L210.296 75.6576L210.301 75.6432L210.051 75.5321ZM207.784 50.5782L210.714 75.0616L231.745 60.1441L207.784 50.5782Z" fill="white"/>
<path d="M231.734 60.4071L254.159 44.5L257.254 70.3542L257.021 70.5191L256.891 70.4716L232.138 60.5857L231.734 60.4071ZM253.762 45.3965L232.755 60.2984L256.688 69.8512L253.762 45.3965Z" fill="white"/>
<path d="M235.067 86.0951L231.945 59.9941L232.448 60.1703L257.152 70.0299L257.338 70.2954L257.137 70.4429L235.067 86.0951ZM232.54 60.7457L235.464 85.1998L256.474 70.2992L232.54 60.7457Z" fill="white"/>
<path d="M259.614 95.4922L259.817 95.3491L256.787 70.036L257.02 69.8711L257.153 69.9161L282.087 79.8681L282.078 80.168L281.977 80.2423L260.348 95.5853L260.374 95.7871L260.15 95.7115L260.145 95.7252L259.861 95.6115L259.865 95.6015L259.614 95.4922ZM257.351 70.5364L260.281 95.0187L281.314 80.0987L257.351 70.5364Z" fill="white"/>
<path d="M238.157 111.288L235.066 85.4338L235.299 85.2695L235.429 85.317L260.181 95.2016L260.584 95.3803L238.157 111.288ZM235.631 85.938L238.556 110.392L259.564 95.4909L235.631 85.938Z" fill="white"/>
<path d="M133.347 21.3159L133.34 21.0129L155.515 5.2832L158.638 31.3841L158.136 31.2098L133.347 21.3159ZM155.118 6.17909L134.111 21.0803L158.044 30.6338L155.118 6.17909Z" fill="white"/>
<path d="M157.881 31.0848L180.305 15.1777L183.399 41.0319L183.166 41.1968L183.036 41.1481L158.284 31.2641L157.881 31.0848ZM179.908 16.073L158.901 30.9761L182.834 40.5277L179.908 16.073Z" fill="white"/>
<path d="M157.881 31.0844L158.081 30.9419L155.053 5.6288L155.286 5.46387L155.42 5.50823L180.48 15.5122L180.243 15.8352L158.614 31.1787L158.639 31.3843L158.415 31.3068L158.411 31.318L158.128 31.2068L158.132 31.195L157.881 31.0844ZM155.618 6.12672L158.547 30.6115L179.579 15.6921L155.618 6.12672Z" fill="white"/>
<path d="M161.215 56.7737L158.09 30.6709L158.594 30.849L183.438 40.7635L183.357 41.0659L183.282 41.1215L161.215 56.7737ZM158.685 31.4243L161.613 55.8778L182.621 40.9766L158.685 31.4243Z" fill="white"/>
<path d="M161.312 56.4339L161.123 56.1665L183.393 40.3682L186.516 66.4666L186.016 66.2973L161.312 56.4339ZM182.996 41.2647L161.991 56.1653L185.922 65.7194L182.996 41.2647Z" fill="white"/>
</g>
<defs>
<clipPath id="clip0_14973_25340">
<rect width="555" height="599" fill="white" transform="translate(0 -273)"/>
</clipPath>
</defs>
</svg>
