<svg width="16" height="24" viewBox="0 0 16 24" fill="none" xmlns="http://www.w3.org/2000/svg">
<path d="M14 19.9999C15.1045 19.9999 15.9999 19.1045 15.9999 18C15.9999 16.8954 15.1045 16 14 16C12.8954 16 12 16.8954 12 18C12 19.1045 12.8954 19.9999 14 19.9999Z" fill="#0A0A0A"/>
<path d="M0.521891 12.3147C1.07688 12.7547 1.94686 12.6747 2.42185 12.1297L3.55683 10.7847C3.25183 12.6847 3.07684 15.1646 4.05682 16.7646C3.74182 17.6346 3.66682 17.7796 3.15684 18.7346L2.90684 19.2146C2.43685 20.0945 2.12186 20.5595 1.68687 21.2045L1.46687 21.5295L1.42187 21.6045C1.07688 22.3845 1.32187 23.3045 1.99686 23.7395C2.18907 23.8652 2.40615 23.948 2.63328 23.9822C2.86041 24.0164 3.09224 24.0011 3.31295 23.9375C3.53366 23.8739 3.73805 23.7635 3.91215 23.6137C4.08626 23.4638 4.22599 23.2782 4.32181 23.0695L4.50681 22.7795C4.9618 22.0595 5.28679 21.5445 5.78178 20.5945C6.36864 19.4719 6.90255 18.3223 7.38174 17.1496C7.53174 17.4396 7.63674 17.7296 7.70174 18.0246C7.74674 18.2396 7.77174 18.4496 7.79673 18.6746C7.84673 19.1296 7.90673 19.6495 8.16673 20.3145C8.35672 20.7945 8.61172 21.2545 8.92171 21.6795C9.07671 21.9395 9.5567 22.6395 10.3867 22.6395C10.5867 22.6395 10.7867 22.5995 10.9767 22.5245C11.8016 22.1945 12.2116 21.2395 11.8916 20.3995C11.8709 20.3419 11.8386 20.2892 11.7966 20.2445C11.5317 19.9445 11.3267 19.6145 11.1867 19.2596C10.9767 18.7396 10.9717 18.3146 10.9617 17.8696C10.9617 17.6196 10.9567 17.3596 10.9167 17.0846C10.8217 16.4296 10.5367 15.7946 10.0617 15.1946L9.05671 13.5747C8.99523 13.428 8.91452 13.2901 8.81671 13.1647C8.43672 12.6747 8.19173 12.1097 8.08173 11.4747L9.85169 12.6247C10.0767 12.7747 10.3367 12.8497 10.6017 12.8497C11.1367 12.8497 11.6167 12.5447 11.8566 12.0597C12.1666 11.4097 11.9366 10.6197 11.3117 10.2147L8.75671 8.54979C8.66865 8.49325 8.57478 8.44632 8.47672 8.40979C8.62172 8.0248 8.74671 7.7898 8.74671 7.7898C8.99671 7.35481 9.04671 6.85482 8.88171 6.38483C8.70671 5.86984 8.28673 5.44485 7.73674 5.21986C7.20175 5.00486 6.40676 4.87986 5.76178 5.17486L5.66178 5.20986C5.26179 5.34985 5.01679 5.43985 4.5518 5.71985C4.48181 5.76485 4.41681 5.80984 4.35681 5.85484C4.30181 5.89484 4.24181 5.93484 4.17181 5.97484C4.12181 5.99984 4.07682 6.03484 4.03682 6.07984L0.381894 10.1947C0.1019 10.5147 -0.0330967 10.9397 0.00690245 11.3597C0.0469016 11.7447 0.226898 12.0847 0.521891 12.3147Z" fill="#0A0A0A"/>
<path d="M8.99995 4.99989C10.3806 4.99989 11.4999 3.88063 11.4999 2.49995C11.4999 1.11926 10.3806 0 8.99995 0C7.61926 0 6.5 1.11926 6.5 2.49995C6.5 3.88063 7.61926 4.99989 8.99995 4.99989Z" fill="#0A0A0A"/>
</svg>
