<svg width="97" height="40" viewBox="0 0 97 40" fill="none" xmlns="http://www.w3.org/2000/svg">
<g clip-path="url(#clip0_15922_57320)">
<path fill-rule="evenodd" clip-rule="evenodd" d="M96.1001 20.6619C96.1001 13.828 92.7899 8.43555 86.4632 8.43555C80.1097 8.43555 76.2656 13.828 76.2656 20.6085C76.2656 28.6438 80.8038 32.7014 87.3174 32.7014C90.4941 32.7014 92.8967 31.9807 94.712 30.9662V25.6272C92.8967 26.5349 90.8145 27.0955 88.1717 27.0955C85.5822 27.0955 83.2864 26.1878 82.9928 23.0378H96.0467C96.0467 22.6908 96.1001 21.3026 96.1001 20.6619ZM82.9127 18.1259C82.9127 15.1093 84.7547 13.8547 86.4365 13.8547C88.0649 13.8547 89.8001 15.1093 89.8001 18.1259H82.9127Z" fill="#635BFF"/>
<path fill-rule="evenodd" clip-rule="evenodd" d="M65.96 8.43555C63.3439 8.43555 61.6621 9.66352 60.7278 10.5178L60.3807 8.86267H54.5078V39.9892L61.1816 38.5744L61.2083 31.0196C62.1693 31.7137 63.5842 32.7014 65.9333 32.7014C70.7118 32.7014 75.0631 28.8573 75.0631 20.395C75.0364 12.6534 70.6317 8.43555 65.96 8.43555ZM64.3583 26.8285C62.7833 26.8285 61.849 26.2679 61.2083 25.5738L61.1816 15.6699C61.8757 14.8958 62.8367 14.3619 64.3583 14.3619C66.7876 14.3619 68.4694 17.0848 68.4694 20.5818C68.4694 24.159 66.8143 26.8285 64.3583 26.8285Z" fill="#635BFF"/>
<path fill-rule="evenodd" clip-rule="evenodd" d="M45.3359 6.86065L52.0364 5.41911V0L45.3359 1.41484V6.86065Z" fill="#635BFF"/>
<path d="M52.0364 8.88965H45.3359V32.2479H52.0364V8.88965Z" fill="#635BFF"/>
<path fill-rule="evenodd" clip-rule="evenodd" d="M38.1542 10.8647L37.7271 8.88922H31.9609V32.2475H38.6347V16.4172C40.2097 14.3617 42.8793 14.7355 43.7068 15.0291V8.88922C42.8526 8.56888 39.7292 7.98158 38.1542 10.8647Z" fill="#635BFF"/>
<path fill-rule="evenodd" clip-rule="evenodd" d="M24.7942 3.09668L18.2806 4.48483L18.2539 25.8676C18.2539 29.8185 21.2171 32.7283 25.1679 32.7283C27.357 32.7283 28.9587 32.3279 29.8396 31.8474V26.4282C28.9854 26.7753 24.7675 28.0033 24.7675 24.0524V14.5756H29.8396V8.88953H24.7675L24.7942 3.09668Z" fill="#635BFF"/>
<path fill-rule="evenodd" clip-rule="evenodd" d="M6.75387 15.6699C6.75387 14.6288 7.60812 14.2284 9.02296 14.2284C11.0518 14.2284 13.6145 14.8424 15.6434 15.9369V9.66352C13.4277 8.78258 11.2387 8.43555 9.02296 8.43555C3.60385 8.43555 0 11.2652 0 15.9903C0 23.3581 10.1442 22.1835 10.1442 25.3603C10.1442 26.5882 9.07635 26.9887 7.58142 26.9887C5.36573 26.9887 2.53604 26.081 0.293646 24.8531V31.2065C2.7763 32.2743 5.28564 32.7281 7.58142 32.7281C13.134 32.7281 16.9514 29.9785 16.9514 25.2001C16.9247 17.2449 6.75387 18.6598 6.75387 15.6699Z" fill="#635BFF"/>
</g>
<defs>
<clipPath id="clip0_15922_57320">
<rect width="96.1079" height="40" fill="white"/>
</clipPath>
</defs>
</svg>
