<svg width="34" height="34" viewBox="0 0 34 34" fill="none" xmlns="http://www.w3.org/2000/svg">
<path d="M17.4527 10.5385H10.9914C10.7466 10.5385 10.5118 10.4412 10.3387 10.2681C10.1656 10.095 10.0684 9.86023 10.0684 9.61543C10.0684 9.37062 10.1656 9.13584 10.3387 8.96274C10.5118 8.78963 10.7466 8.69238 10.9914 8.69238H17.4527C17.6975 8.69238 17.9323 8.78963 18.1054 8.96274C18.2785 9.13584 18.3757 9.37062 18.3757 9.61543C18.3757 9.86023 18.2785 10.095 18.1054 10.2681C17.9323 10.4412 17.6975 10.5385 17.4527 10.5385ZM20.2218 15.1537H10.9914C10.7466 15.1537 10.5118 15.0564 10.3387 14.8833C10.1656 14.7102 10.0684 14.4754 10.0684 14.2306C10.0684 13.9858 10.1656 13.7511 10.3387 13.578C10.5118 13.4048 10.7466 13.3076 10.9914 13.3076H20.2218C20.4666 13.3076 20.7014 13.4048 20.8745 13.578C21.0476 13.7511 21.1449 13.9858 21.1449 14.2306C21.1449 14.4754 21.0476 14.7102 20.8745 14.8833C20.7014 15.0564 20.4666 15.1537 20.2218 15.1537ZM16.4004 18.8459H10.9914C10.7466 18.8459 10.5118 18.7486 10.3387 18.5755C10.1656 18.4024 10.0684 18.1676 10.0684 17.9228C10.0684 17.678 10.1656 17.4432 10.3387 17.2701C10.5118 17.097 10.7466 16.9998 10.9914 16.9998H16.4004C16.6452 16.9998 16.88 17.097 17.0531 17.2701C17.2262 17.4432 17.3235 17.678 17.3235 17.9228C17.3235 18.1676 17.2262 18.4024 17.0531 18.5755C16.88 18.7486 16.6452 18.8459 16.4004 18.8459ZM14.1851 22.538H10.9914C10.7466 22.538 10.5118 22.4408 10.3387 22.2677C10.1656 22.0946 10.0684 21.8598 10.0684 21.615C10.0684 21.3702 10.1656 21.1354 10.3387 20.9623C10.5118 20.7892 10.7466 20.6919 10.9914 20.6919H14.1851C14.4299 20.6919 14.6647 20.7892 14.8378 20.9623C15.0109 21.1354 15.1082 21.3702 15.1082 21.615C15.1082 21.8598 15.0109 22.0946 14.8378 22.2677C14.6647 22.4408 14.4299 22.538 14.1851 22.538Z" fill="white" stroke="#0D1A67" stroke-width="0.484598"/>
<path d="M14.1871 28.0765H10.0703C7.52546 28.0765 5.45508 26.0061 5.45508 23.4612V7.76951C5.45508 5.22468 7.52546 3.1543 10.0703 3.1543H21.1468C23.6916 3.1543 25.762 5.22468 25.762 7.76951V15.3385C25.762 15.5833 25.6648 15.8181 25.4917 15.9912C25.3186 16.1643 25.0838 16.2615 24.839 16.2615C24.5942 16.2615 24.3594 16.1643 24.1863 15.9912C24.0132 15.8181 23.9159 15.5833 23.9159 15.3385V7.76951C23.9159 6.2428 22.6735 5.00038 21.1468 5.00038H10.0703C8.54358 5.00038 7.30116 6.2428 7.30116 7.76951V23.4612C7.30116 24.988 8.54358 26.2304 10.0703 26.2304H14.1871C14.4319 26.2304 14.6667 26.3276 14.8398 26.5007C15.0129 26.6738 15.1101 26.9086 15.1101 27.1534C15.1101 27.3982 15.0129 27.633 14.8398 27.8061C14.6667 27.9792 14.4319 28.0765 14.1871 28.0765Z" fill="white" stroke="#0D1A67" stroke-width="0.484598"/>
<path d="M22.9945 30.8455C19.4325 30.8455 16.5332 27.9471 16.5332 24.3842C16.5332 20.8212 19.4325 17.9229 22.9945 17.9229C26.5565 17.9229 29.4558 20.8212 29.4558 24.3842C29.4558 27.9471 26.5565 30.8455 22.9945 30.8455ZM22.9945 19.7689C20.4497 19.7689 18.3793 21.8393 18.3793 24.3842C18.3793 26.929 20.4497 28.9994 22.9945 28.9994C25.5393 28.9994 27.6097 26.929 27.6097 24.3842C27.6097 21.8393 25.5393 19.7689 22.9945 19.7689Z" fill="white" stroke="#0D1A67" stroke-width="0.484598"/>
<path d="M22.376 26.7228C22.2547 26.7229 22.1347 26.6991 22.0227 26.6527C21.9107 26.6063 21.809 26.5382 21.7234 26.4523L20.493 25.2219C20.4073 25.1362 20.3393 25.0345 20.2929 24.9225C20.2465 24.8105 20.2227 24.6905 20.2227 24.5693C20.2227 24.4481 20.2465 24.3281 20.2929 24.2162C20.3393 24.1042 20.4073 24.0024 20.493 23.9167C20.5787 23.831 20.6804 23.7631 20.7924 23.7167C20.9044 23.6703 21.0244 23.6464 21.1456 23.6464C21.2668 23.6464 21.3868 23.6703 21.4987 23.7167C21.6107 23.7631 21.7125 23.831 21.7982 23.9167L22.376 24.4946L24.1851 22.6863C24.2708 22.6006 24.3726 22.5326 24.4846 22.4863C24.5965 22.4399 24.7165 22.416 24.8377 22.416C24.9589 22.416 25.0789 22.4399 25.1909 22.4863C25.3029 22.5326 25.4046 22.6006 25.4903 22.6863C25.576 22.772 25.644 22.8738 25.6904 22.9857C25.7368 23.0977 25.7606 23.2177 25.7606 23.3389C25.7606 23.4601 25.7368 23.5801 25.6904 23.6921C25.644 23.8041 25.576 23.9058 25.4903 23.9915L23.0286 26.4533C22.943 26.5391 22.8412 26.6072 22.7293 26.6536C22.6173 26.7 22.4972 26.7229 22.376 26.7228Z" fill="white" stroke="#0D1A67" stroke-width="0.484598"/>
</svg>
