<svg width="34" height="34" viewBox="0 0 34 34" fill="none" xmlns="http://www.w3.org/2000/svg">
<path d="M5.81436 26.4807C6.02936 26.5414 6.2597 26.5144 6.45481 26.4056C6.64993 26.2967 6.79389 26.1149 6.85511 25.9L8.33827 20.6769C8.59136 19.7966 9.12337 19.0221 9.85432 18.47C10.5853 17.9179 11.4757 17.618 12.3917 17.6154H21.6076C22.5236 17.618 23.414 17.9179 24.145 18.47C24.8759 19.0221 25.4079 19.7966 25.661 20.6769L27.1442 25.9C27.1744 26.0065 27.2254 26.1059 27.2941 26.1927C27.3628 26.2795 27.4479 26.3519 27.5446 26.4058C27.6413 26.4596 27.7476 26.4939 27.8576 26.5067C27.9675 26.5195 28.0789 26.5105 28.1853 26.4802C28.2918 26.45 28.3913 26.399 28.478 26.3303C28.5648 26.2616 28.6372 26.1765 28.6911 26.0798C28.745 25.9831 28.7793 25.8768 28.792 25.7668C28.8048 25.6569 28.7958 25.5455 28.7655 25.4391L27.2824 20.216C26.9279 18.9835 26.183 17.8995 25.1597 17.1266C24.1364 16.3537 22.8899 15.9338 21.6076 15.9299H21.2772C21.9166 15.3416 22.4271 14.6271 22.7763 13.8315C23.1256 13.0359 23.3061 12.1766 23.3065 11.3077C23.3065 7.82982 20.4775 5 16.9996 5C13.5218 5 10.6928 7.82982 10.6928 11.3077C10.6928 13.1347 11.4774 14.7771 12.722 15.9299H12.3917C11.1096 15.9342 9.86352 16.3542 8.84055 17.1271C7.81758 17.8999 7.07298 18.9838 6.71859 20.216L5.23542 25.4391C5.20507 25.5455 5.19599 25.6569 5.2087 25.7669C5.22141 25.8769 5.25567 25.9833 5.30951 26.08C5.36335 26.1767 5.43573 26.2619 5.52249 26.3306C5.60926 26.3994 5.70788 26.4504 5.81436 26.4807ZM12.3782 11.3077C12.3782 8.75933 14.4513 6.68542 16.9996 6.68542C19.548 6.68542 21.6211 8.75848 21.6211 11.3077C21.6211 13.8569 19.548 15.9299 16.9996 15.9299C14.4513 15.9299 12.3782 13.8569 12.3782 11.3077Z" fill="white" stroke="#0D1A67" stroke-width="0.539334" stroke-linecap="round" stroke-linejoin="round"/>
<path d="M13.641 28.839C13.7546 28.9215 13.8871 28.9742 14.0263 28.9925C14.1655 29.0107 14.3071 28.9939 14.4382 28.9435L17.0008 27.9601L19.5635 28.9435C19.6946 28.9934 19.8361 29.0098 19.9752 28.9913C20.1143 28.9728 20.2466 28.9199 20.3601 28.8374C20.4736 28.7549 20.5647 28.6455 20.6253 28.5189C20.6859 28.3924 20.714 28.2528 20.7071 28.1126L20.563 25.3713L22.2905 23.2392C22.3788 23.13 22.4385 23.0005 22.4641 22.8624C22.4896 22.7243 22.4803 22.582 22.437 22.4484C22.3936 22.3148 22.3176 22.1941 22.2158 22.0974C22.114 22.0006 21.9896 21.9308 21.854 21.8943L19.202 21.1839L17.7079 18.8824C17.3961 18.4038 16.6048 18.4038 16.2938 18.8824L14.7997 21.183L12.1477 21.8943C12.0121 21.9307 11.8877 22.0004 11.7859 22.0971C11.6841 22.1937 11.608 22.3143 11.5646 22.4479C11.5213 22.5814 11.512 22.7237 11.5375 22.8617C11.5631 22.9998 11.6228 23.1293 11.7111 23.2384L13.4387 25.3713L13.2946 28.1126C13.2871 28.2529 13.3147 28.3929 13.3751 28.5197C13.4354 28.6466 13.5274 28.7564 13.641 28.839ZM16.0368 22.3729L17.0008 20.8889L17.9649 22.3729C18.0778 22.5474 18.2523 22.6738 18.4537 22.7277L20.1635 23.1861L19.0495 24.5623C18.9184 24.7243 18.8518 24.9289 18.8624 25.137L18.9559 26.905L17.3025 26.2696C17.1083 26.195 16.8933 26.195 16.6991 26.2696L15.0458 26.9042L15.1393 25.1362C15.1499 24.9281 15.0833 24.7234 14.9522 24.5614L13.8381 23.1853L15.5488 22.7269C15.7494 22.6729 15.9239 22.5465 16.0376 22.3721L16.0368 22.3729Z" fill="white" stroke="#0D1A67" stroke-width="0.539334" stroke-linecap="round" stroke-linejoin="round"/>
</svg>
