<svg width="16" height="18" viewBox="0 0 16 18" fill="none" xmlns="http://www.w3.org/2000/svg">
<path d="M14.8597 2.37793L7.81615 0.0300853C7.69559 -0.0100284 7.56528 -0.0100284 7.44472 0.0300853L0.401238 2.37793C0.284391 2.4169 0.182766 2.49164 0.110754 2.59157C0.0387429 2.6915 -4.36527e-06 2.81156 3.68866e-10 2.93473V7.64075C-3.51559e-05 14.3763 5.99537 18 7.63045 18C8.80358 18 15.2609 14.8112 15.2609 7.64071V2.93469C15.2609 2.81153 15.2222 2.69148 15.1501 2.59155C15.0781 2.49163 14.9765 2.41689 14.8597 2.37793ZM12.9131 7.64201C12.9131 12.742 8.49843 15.4817 7.63042 15.4827V2.48062C7.80557 2.48097 12.3452 4.01283 12.5114 4.06806C12.6283 4.107 12.73 4.18174 12.8021 4.2817C12.8742 4.38166 12.913 4.50177 12.913 4.62501L12.9131 7.64201Z" fill="#3498DB"/>
</svg>
