<svg width="34" height="34" viewBox="0 0 34 34" fill="none" xmlns="http://www.w3.org/2000/svg">
<path d="M17.5 28C23.5751 28 28.5 23.0751 28.5 17C28.5 10.9249 23.5751 6 17.5 6C11.4249 6 6.5 10.9249 6.5 17C6.5 23.0751 11.4249 28 17.5 28Z" stroke="white" stroke-width="1.1" stroke-linecap="round" stroke-linejoin="round"/>
<path d="M13.0986 7.09961H14.1986C12.0536 13.5236 12.0536 20.4756 14.1986 26.8996H13.0986" stroke="white" stroke-width="1.1" stroke-linecap="round" stroke-linejoin="round"/>
<path d="M20.7988 7.09961C22.9438 13.5236 22.9438 20.4756 20.7988 26.8996" stroke="white" stroke-width="1.1" stroke-linecap="round" stroke-linejoin="round"/>
<path d="M7.60156 21.3998V20.2998C14.0256 22.4448 20.9776 22.4448 27.4016 20.2998V21.3998" stroke="white" stroke-width="1.1" stroke-linecap="round" stroke-linejoin="round"/>
<path d="M7.60156 13.7005C14.0256 11.5555 20.9776 11.5555 27.4016 13.7005" stroke="white" stroke-width="1.1" stroke-linecap="round" stroke-linejoin="round"/>
</svg>
