<svg width="17" height="20" viewBox="0 0 17 20" fill="none" xmlns="http://www.w3.org/2000/svg">
<path d="M4.73918 6.70907V5.36726C4.74934 3.37044 6.42597 1.73939 8.49889 1.73939C10.0841 1.73939 11.5067 2.72339 12.0249 4.19541C12.1976 4.65262 12.7057 4.89017 13.163 4.73213C13.3865 4.66156 13.5694 4.50253 13.671 4.29381C13.7727 4.08508 13.793 3.84654 13.7117 3.62787C12.9394 1.46208 10.8462 0 8.47857 0C5.45048 0 2.98126 2.41626 2.96094 5.38714V6.91084L4.73918 6.70907Z" fill="#0D1A67"/>
<path d="M12.7314 6.71094C15.0888 6.71107 17 8.58086 17 10.8867V15.8242C17 18.1301 15.0888 19.9999 12.7314 20H4.26855C1.91122 19.9999 0 18.1301 0 15.8242V10.8867C0 8.58086 1.91122 6.71107 4.26855 6.71094H12.7314ZM8.49512 11.3828C8.0074 11.3828 7.61138 11.77 7.61133 12.2471V14.4541C7.61154 14.9409 8.0075 15.3281 8.49512 15.3281C8.9928 15.328 9.38846 14.9409 9.38867 14.4541V12.2471C9.38862 11.7701 8.9929 11.3829 8.49512 11.3828Z" fill="#0D1A67"/>
</svg>
