<svg width="34" height="34" viewBox="0 0 34 34" fill="none" xmlns="http://www.w3.org/2000/svg">
<path d="M16.7425 11.8935L18.3317 15.1137L21.8853 15.63L19.3139 18.1365L19.9209 21.6758L16.7425 20.0048L13.564 21.6758L14.171 18.1365L11.5996 15.63L15.1532 15.1137L16.7425 11.8935Z" stroke="white" stroke-width="1.0329" stroke-miterlimit="10" stroke-linecap="round" stroke-linejoin="round"/>
<path d="M13.4436 25.8199C11.7445 25.6692 10.1109 24.8206 8.89761 23.4494C7.68979 22.072 6.94219 20.2176 6.80944 18.2887C6.49819 14.7421 8.52664 11.191 11.4378 9.96114M13.1376 5C12.5575 5.05646 11.9724 5.14491 11.4062 5.31086C10.453 5.55371 9.72761 6.27034 9.4155 7.052C9.08076 7.8152 9.17459 8.69223 9.55133 9.37663L10.2395 10.649C10.5547 10.4086 10.9042 10.2401 11.2453 10.0563C11.8249 9.80423 12.2789 9.30537 12.654 8.69823C13.017 8.07526 13.2904 7.3008 13.2396 6.48851L13.1376 5ZM5.51687 9.40463C5.14796 9.91703 4.78064 10.4389 4.4895 11.0157C3.96522 11.9502 3.90487 13.0415 4.16316 13.8427C4.41613 14.6559 5.01105 15.1961 5.70779 15.3787L6.98693 15.7261C7.06499 15.305 7.1983 14.9038 7.32979 14.5013C7.5803 13.8558 7.59773 13.1423 7.47904 12.407C7.35567 11.6818 7.05802 10.9075 6.51659 10.3748L5.51687 9.40463ZM2.9707 18.6361C3.02042 19.2946 3.09836 19.9588 3.24453 20.6016C3.45847 21.6837 4.14687 22.5071 4.83539 22.8615C5.50773 23.2415 6.12819 23.135 6.73104 22.7074L7.85184 21.9261C7.64007 21.5682 7.49167 21.1714 7.32979 20.7843C7.10767 20.1262 6.6683 19.6108 6.13344 19.1851C5.58464 18.773 4.99739 18.4626 4.2819 18.5203L2.9707 18.6361ZM6.75567 27.2873C7.20704 27.7062 7.66682 28.1304 8.17493 28.461C8.99807 29.0561 9.95933 29.1247 10.6652 28.8314C11.3815 28.5443 11.8573 27.8615 12.0182 27.0705L12.3242 25.6184C11.9533 25.5298 11.5998 25.3785 11.2453 25.2292C10.6766 24.9448 10.0482 24.925 9.40041 25.0598C8.76156 25.1998 8.07962 25.5378 7.61024 26.1524L6.75567 27.2873Z" stroke="white" stroke-width="1.0329" stroke-miterlimit="10" stroke-linecap="round" stroke-linejoin="round"/>
<path d="M22.0233 9.96118C24.9345 11.191 26.963 14.7421 26.6517 18.2887C26.519 20.2176 25.7714 22.072 24.5635 23.4494C23.3503 24.8206 21.7167 25.6693 20.0176 25.82M20.2216 6.48855C20.1708 7.30078 20.4442 8.0753 20.8072 8.69827C21.1823 9.30541 21.6363 9.80421 22.2159 10.0564C22.5569 10.2402 22.9064 10.4086 23.2217 10.649L23.9099 9.37667C24.2865 8.69227 24.3804 7.81524 24.0457 7.05204C23.7335 6.27038 23.0081 5.55375 22.055 5.3109C21.4887 5.14495 20.9037 5.05644 20.3236 5.00004L20.2216 6.48855ZM26.9445 10.3748C26.4032 10.9076 26.1055 11.6817 25.9821 12.407C25.8634 13.1423 25.8808 13.8558 26.1313 14.5013C26.2629 14.9038 26.3961 15.3051 26.4743 15.7261L27.7534 15.3788C28.4501 15.196 29.0451 14.656 29.298 13.8427C29.5563 13.0415 29.496 11.9503 28.9717 11.0158C28.6805 10.4389 28.3132 9.91707 27.9443 9.40467L26.9445 10.3748ZM29.2037 18.5203C28.4882 18.4627 27.8765 18.7731 27.3277 19.1851C26.7928 19.6109 26.3535 20.1263 26.1313 20.7843C25.9695 21.1714 25.8211 21.5683 25.6093 21.9261L26.7301 22.7074C27.3329 23.1349 28.035 23.2415 28.7073 22.8615C29.3959 22.5072 30.0272 21.6837 30.2411 20.6016C30.3872 19.9588 30.4652 19.2946 30.5149 18.6361L29.2037 18.5203ZM25.8509 26.1524C25.3816 25.5377 24.6996 25.1998 24.0608 25.0598C23.413 24.9251 22.7845 24.9449 22.2159 25.2292C21.8613 25.3785 21.5079 25.5298 21.1369 25.6185L21.4429 27.0705C21.6039 27.8616 22.0797 28.5443 22.796 28.8314C23.5018 29.1247 24.4631 29.0561 25.2863 28.461C25.7943 28.1304 26.2541 27.7062 26.7055 27.2873L25.8509 26.1524Z" stroke="white" stroke-width="1.0329" stroke-miterlimit="10" stroke-linecap="round" stroke-linejoin="round"/>
</svg>
