<svg width="20" height="20" viewBox="0 0 20 20" fill="none" xmlns="http://www.w3.org/2000/svg">
<path d="M7.41878 14.0792C7.27153 14.0787 7.12993 14.0225 7.02244 13.9219C6.49019 13.4165 6.06634 12.8082 5.7767 12.1338C5.48707 11.4595 5.3377 10.7332 5.3377 9.99928C5.3377 9.26535 5.48707 8.5391 5.7767 7.86474C6.06634 7.19038 6.49019 6.58202 7.02244 6.07669C7.13714 5.98369 7.28286 5.93768 7.43017 5.94797C7.57747 5.95827 7.71538 6.02408 7.81603 6.13213C7.91668 6.24018 7.97256 6.38241 7.97239 6.53007C7.97223 6.67774 7.91602 6.81983 7.81512 6.92765C7.4008 7.32479 7.07111 7.80164 6.84588 8.32951C6.62065 8.85739 6.50455 9.42537 6.50455 9.99928C6.50455 10.5732 6.62065 11.1412 6.84588 11.6691C7.07111 12.1969 7.4008 12.6738 7.81512 13.0709C7.90034 13.1507 7.95964 13.2542 7.98534 13.3681C8.01103 13.482 8.00193 13.601 7.95923 13.7096C7.91652 13.8183 7.84217 13.9116 7.74581 13.9775C7.64945 14.0434 7.53552 14.0788 7.41878 14.0792ZM5.08738 15.6413C5.19593 15.5321 5.25686 15.3844 5.25686 15.2304C5.25686 15.0764 5.19593 14.9287 5.08738 14.8195C4.4353 14.1974 3.91624 13.4494 3.56159 12.6209C3.20694 11.7924 3.02408 10.9005 3.02408 9.99928C3.02408 9.09805 3.20694 8.20619 3.56159 7.37767C3.91624 6.54915 4.4353 5.80121 5.08738 5.1791C5.20022 5.07012 5.26515 4.92078 5.26788 4.76392C5.27062 4.60707 5.21093 4.45555 5.10195 4.34271C4.99297 4.22986 4.84362 4.16493 4.68677 4.1622C4.52991 4.15947 4.3784 4.21916 4.26555 4.32814C3.49778 5.05973 2.88655 5.93961 2.46892 6.91444C2.05128 7.88927 1.83594 8.93876 1.83594 9.99928C1.83594 11.0598 2.05128 12.1093 2.46892 13.0841C2.88655 14.059 3.49778 14.9388 4.26555 15.6704C4.32164 15.7232 4.38762 15.7643 4.4597 15.7914C4.53177 15.8186 4.6085 15.8311 4.68546 15.8284C4.76241 15.8257 4.83807 15.8078 4.90806 15.7757C4.97804 15.7435 5.04097 15.6979 5.0932 15.6413H5.08738ZM12.9734 13.9219C13.5056 13.4165 13.9295 12.8082 14.2191 12.1338C14.5087 11.4595 14.6581 10.7332 14.6581 9.99928C14.6581 9.26535 14.5087 8.5391 14.2191 7.86474C13.9295 7.19038 13.5056 6.58202 12.9734 6.07669C12.9175 6.02426 12.8518 5.98335 12.7801 5.95629C12.7085 5.92923 12.6321 5.91656 12.5556 5.919C12.479 5.92143 12.4036 5.93893 12.3338 5.97049C12.264 6.00204 12.2011 6.04704 12.1486 6.10292C12.0962 6.15879 12.0553 6.22445 12.0282 6.29614C12.0012 6.36782 11.9885 6.44413 11.9909 6.52072C11.9934 6.5973 12.0109 6.67266 12.0424 6.74248C12.074 6.8123 12.119 6.87522 12.1749 6.92765C12.5914 7.32349 12.9231 7.79992 13.1497 8.32797C13.3764 8.85602 13.4933 9.42465 13.4933 9.99928C13.4933 10.5739 13.3764 11.1425 13.1497 11.6706C12.9231 12.1986 12.5914 12.6751 12.1749 13.0709C12.0623 13.1762 11.9961 13.3218 11.9906 13.4758C11.9852 13.6298 12.0409 13.7797 12.1457 13.8927C12.2007 13.9521 12.2675 13.9993 12.3417 14.0314C12.416 14.0635 12.4961 14.0798 12.577 14.0792C12.7243 14.0787 12.8659 14.0225 12.9734 13.9219ZM15.7244 15.6704C16.4944 14.9401 17.1077 14.0607 17.5267 13.0857C17.9458 12.1107 18.1619 11.0605 18.1619 9.99928C18.1619 8.93803 17.9458 7.88789 17.5267 6.91289C17.1077 5.93788 16.4944 5.05843 15.7244 4.32814C15.6097 4.23513 15.464 4.18913 15.3167 4.19942C15.1694 4.20971 15.0315 4.27553 14.9308 4.38358C14.8302 4.49163 14.7743 4.63385 14.7745 4.78152C14.7746 4.92918 14.8308 5.07128 14.9317 5.1791C15.5838 5.80121 16.1029 6.54915 16.4575 7.37767C16.8122 8.20619 16.995 9.09805 16.995 9.99928C16.995 10.9005 16.8122 11.7924 16.4575 12.6209C16.1029 13.4494 15.5838 14.1974 14.9317 14.8195C14.8192 14.9248 14.753 15.0703 14.7475 15.2244C14.7421 15.3784 14.7978 15.5283 14.9026 15.6413C14.9569 15.6999 15.0228 15.7467 15.096 15.7788C15.1691 15.8109 15.2482 15.8275 15.3281 15.8278C15.4753 15.8273 15.6169 15.7711 15.7244 15.6704ZM11.1665 9.99928C11.1665 9.76873 11.0982 9.54335 10.9701 9.35165C10.842 9.15995 10.6599 9.01054 10.4469 8.92231C10.2339 8.83408 9.99952 8.811 9.7734 8.85598C9.54727 8.90096 9.33956 9.01198 9.17654 9.17501C9.01351 9.33803 8.90249 9.54574 8.85751 9.77186C8.81253 9.99799 8.83562 10.2324 8.92385 10.4454C9.01207 10.6584 9.16149 10.8404 9.35318 10.9685C9.54488 11.0966 9.77026 11.165 10.0008 11.165C10.31 11.165 10.6065 11.0422 10.8251 10.8236C11.0437 10.6049 11.1665 10.3084 11.1665 9.99928Z" fill="#E74C3C" stroke="#E74C3C" stroke-width="0.233141"/>
</svg>
