<svg width="17" height="20" viewBox="0 0 17 20" fill="none" xmlns="http://www.w3.org/2000/svg">
<path d="M8.48438 0C11.5531 0 14.0225 2.41527 14.0225 5.39648V6.92969C15.7448 7.4673 17 9.0264 17 10.8887V15.8252C17 18.1306 15.0888 19.9999 12.7324 20H4.26855C1.91122 19.9999 0 18.1306 0 15.8252V10.8887C0 9.0264 1.2562 7.4673 2.97754 6.92969V5.39648C2.9877 2.41539 5.45646 0.000203809 8.48438 0ZM8.49512 11.3848C8.00737 11.3848 7.61133 11.772 7.61133 12.249V14.4551C7.61141 14.9419 8.00742 15.3291 8.49512 15.3291C8.99288 15.329 9.38859 14.9419 9.38867 14.4551V12.249C9.38867 11.7721 8.99293 11.3849 8.49512 11.3848ZM8.50488 1.73926C6.44227 1.73936 4.76611 3.36876 4.75586 5.37598V6.71387H12.2441V5.39648C12.2441 3.37919 10.5676 1.73926 8.50488 1.73926Z" fill="white"/>
</svg>
