<?xml version="1.0" encoding="UTF-8"?>
<svg id="Layer_1" data-name="Layer 1" xmlns="http://www.w3.org/2000/svg" viewBox="360 405 580 65" fill="white">
  <path d="M395.59,441.23c-.73,0-1.25.75-.96,1.43,1.7,3.97,5.63,6.76,10.21,6.76s8.52-2.79,10.21-6.76c.29-.67-.23-1.43-.96-1.43h-18.5ZM423.07,441.23c-.86,0-1.63.57-1.85,1.4-1.92,7.26-8.53,12.63-16.38,12.63s-14.46-5.37-16.38-12.63c-.22-.83-.99-1.4-1.85-1.4h-24.25c-.92,0-1.67.75-1.67,1.67v26.52s0,21.18,0,21.18c0,1.96,2.37,2.94,3.75,1.55l21.49-21.49c.79-.79,1.87-1.24,2.99-1.24h40.61c2.8,0,5.06-2.27,5.06-5.07v-21.45c0-.92-.75-1.67-1.68-1.67h-9.85ZM394.62,433.96c-.29.67.23,1.43.96,1.43h18.5c.73,0,1.25-.75.96-1.43-1.69-3.97-5.63-6.76-10.21-6.76s-8.51,2.79-10.21,6.76M365.75,407.2c-2.8,0-5.07,2.27-5.06,5.06v21.45c0,.92.75,1.67,1.67,1.67h24.25c.86,0,1.63-.57,1.85-1.4,1.92-7.26,8.53-12.63,16.38-12.63s14.46,5.37,16.38,12.63c.22.83.99,1.4,1.85,1.4h24.25c.93,0,1.68-.75,1.68-1.67v-21.45c0-2.8-2.27-5.06-5.06-5.06h-78.18Z"/>
  <path d="M478.01,463.28v-49.94h30.91v7.73h-20.82v13.09h15.88v7.73h-15.88v21.39h-10.09Z"/>
  <path d="M518,458.2c-3.86-3.77-5.79-8.7-5.79-14.81s1.96-11.02,5.87-14.74,8.76-5.58,14.56-5.58,10.65,1.86,14.56,5.58c3.91,3.72,5.87,8.63,5.87,14.74s-1.97,11.04-5.9,14.81c-3.94,3.77-8.81,5.65-14.63,5.65s-10.66-1.88-14.52-5.65ZM532.53,455.34c2.81,0,5.23-1.04,7.26-3.11,2.03-2.08,3.04-5.01,3.04-8.8s-1-6.71-3-8.76c-2-2.05-4.42-3.08-7.26-3.08s-5.24,1.03-7.19,3.08c-1.96,2.05-2.93,4.98-2.93,8.8s.98,6.75,2.93,8.8c1.96,2.05,4.34,3.08,7.16,3.08Z"/>
  <path d="M586.47,423.64h10.09v39.64h-10.09v-6.01c-2.53,4.34-6.65,6.51-12.38,6.51-4.48,0-8.16-1.49-11.02-4.47-2.86-2.98-4.29-7.12-4.29-12.41v-23.25h10.02v21.82c0,3.1.79,5.49,2.36,7.15,1.57,1.67,3.72,2.5,6.44,2.5s4.88-.83,6.47-2.5c1.6-1.67,2.4-4.05,2.4-7.15v-21.82Z"/>
  <path d="M615.44,423.64v7.01c2.67-5.06,6.53-7.58,11.59-7.58v10.3h-2.5c-3,0-5.27.75-6.8,2.25-1.53,1.5-2.29,4.09-2.29,7.76v19.89h-10.09v-39.64h10.09Z"/>
  <path d="M646.2,454.84c-1.53,0-2.6-.28-3.22-.83-.62-.55-.93-1.46-.93-2.75v-11.99c0-1.61-.9-3.09-2.33-3.84l-6.85-3.56h18.05v-8.23h-8.87v-9.8h-10.09v37.42c0,4.29,1.1,7.37,3.29,9.23,2.2,1.86,5.32,2.79,9.38,2.79h6.36v-8.44h-4.79Z"/>
  <path d="M667.02,410.34v19.25c2.53-4.34,6.63-6.51,12.31-6.51,4.53,0,8.23,1.49,11.09,4.47,2.86,2.98,4.29,7.12,4.29,12.41v23.32h-10.02v-21.89c0-3.1-.79-5.47-2.36-7.12-1.57-1.65-3.72-2.47-6.44-2.47s-4.88.82-6.48,2.47c-1.6,1.65-2.4,4.02-2.4,7.12v21.89h-10.09v-52.94h10.09Z"/>
  <path d="M725.9,463.78c-7.2,0-13.26-2.41-18.17-7.23-4.91-4.82-7.37-10.93-7.37-18.35s2.47-13.53,7.41-18.35c4.94-4.82,10.99-7.23,18.17-7.23s13.22,2.41,18.14,7.23c4.91,4.82,7.37,10.94,7.37,18.35s-2.46,13.53-7.37,18.35c-4.91,4.82-10.97,7.23-18.17,7.23ZM736.92,450.08c2.81-2.98,4.22-6.95,4.22-11.91s-1.41-8.92-4.22-11.88c-2.81-2.96-6.49-4.44-11.02-4.44s-8.22,1.49-11.05,4.47c-2.84,2.98-4.26,6.94-4.26,11.88s1.42,8.9,4.26,11.88c2.84,2.98,6.52,4.47,11.05,4.47s8.2-1.49,11.02-4.47Z"/>
  <path d="M774.41,423.64v8.23h-6.3v31.41h-10.02v-31.41h-4.29v-8.23h4.29v-2.22c0-4.77,1.26-8.25,3.79-10.45,2.53-2.19,6.51-3.29,11.95-3.29v8.44c-2.1,0-3.58.41-4.44,1.22-.86.81-1.29,2.17-1.29,4.08v2.22h6.3Z"/>
  <path d="M812.65,409.19c-1.17-1.19-2.61-1.79-4.33-1.79s-3.16.6-4.32,1.79c-1.17,1.19-1.76,2.65-1.76,4.36,0,.88.15,1.68.46,2.42.16.4.37.77.62,1.13.2.29.42.56.68.82,1.16,1.19,2.61,1.79,4.32,1.79s3.16-.6,4.33-1.79,1.76-2.65,1.76-4.37-.59-3.17-1.76-4.36ZM803.32,423.64v39.64h10.01v-39.64h-10.01ZM780.06,421.42v2.22h-4.29v8.23h4.29v31.41h10.02v-31.41h5.72v-8.23h-5.72v-2.22c0-1.9.43-3.26,1.29-4.07.86-.82,2.33-1.22,4.43-1.22v-8.44c-5.43,0-9.42,1.09-11.95,3.29-2.52,2.19-3.79,5.67-3.79,10.44Z"/>
  <path d="M824.77,458.27c-3.62-3.72-5.44-8.66-5.44-14.81s1.81-11.09,5.44-14.81,8.32-5.58,14.09-5.58c4.82,0,8.85,1.17,12.09,3.51,3.24,2.34,5.41,5.65,6.51,9.94h-10.88c-1.29-3.29-3.86-4.94-7.73-4.94-2.91,0-5.19,1.06-6.83,3.18-1.65,2.12-2.47,5.02-2.47,8.69s.82,6.57,2.47,8.69c1.65,2.12,3.92,3.18,6.83,3.18,3.82,0,6.39-1.67,7.73-5.01h10.88c-1.14,4.15-3.35,7.44-6.62,9.87-3.27,2.43-7.26,3.65-11.98,3.65-5.77,0-10.47-1.86-14.09-5.58Z"/>
  <path d="M874.28,413.56c0,1.72-.6,3.17-1.79,4.36-1.19,1.19-2.64,1.79-4.33,1.79s-3.14-.6-4.33-1.79c-1.19-1.19-1.79-2.65-1.79-4.36s.6-3.17,1.79-4.36c1.19-1.19,2.64-1.79,4.33-1.79s3.14.6,4.33,1.79c1.19,1.19,1.79,2.65,1.79,4.36ZM863.12,463.28v-39.64h10.09v39.64h-10.09Z"/>
  <path d="M884.55,458.09c-3.55-3.84-5.33-8.74-5.33-14.7s1.76-10.84,5.29-14.63c3.53-3.79,8.01-5.69,13.45-5.69s9.59,2.24,12.45,6.73v-6.15h10.02v39.64h-10.02v-6.65c-3,4.82-7.18,7.23-12.52,7.23s-9.79-1.92-13.34-5.76ZM907.27,452.01c2.1-2.07,3.15-4.92,3.15-8.55s-1.05-6.48-3.15-8.55c-2.1-2.07-4.56-3.11-7.37-3.11s-5.26,1.03-7.33,3.08c-2.08,2.05-3.11,4.89-3.11,8.51s1.05,6.49,3.15,8.59c2.1,2.1,4.54,3.15,7.33,3.15s5.23-1.04,7.33-3.11Z"/>
  <path d="M929.23,463.28v-52.94h10.09v52.94h-10.09Z"/>
  <path d="M803.32,415.97v1.13c-.25-.36-.46-.73-.62-1.13h.62Z"/>
</svg>
