<svg width="833" height="595" viewBox="0 0 833 595" fill="none" xmlns="http://www.w3.org/2000/svg">
<path d="M1.03149e-06 23.5978L2.49662e-05 571.161C2.55359e-05 584.194 10.5651 594.759 23.5977 594.759L809.402 594.759C822.435 594.759 833 584.194 833 571.161L833 23.5978C833 10.5651 822.435 8.61205e-05 809.402 8.66902e-05L23.5977 0.000121039C10.5651 0.000121608 4.61814e-07 10.5652 1.03149e-06 23.5978Z" fill="#27AE60"/>
<path d="M47.0898 51.7851L47.0899 545.69L788.678 545.69L788.678 51.785L47.0898 51.7851Z" fill="white" fill-opacity="0.1"/>
<path d="M47.0898 51.7851L47.0899 545.69L90.5582 545.69L90.5582 51.7851L47.0898 51.7851Z" fill="#27AE60"/>
<path d="M129.823 51.7851L129.823 545.69L173.292 545.69L173.292 51.7851L129.823 51.7851Z" fill="#27AE60"/>
<path d="M212.563 51.7851L212.564 545.69L256.032 545.69L256.032 51.7851L212.563 51.7851Z" fill="#27AE60"/>
<path d="M295.3 51.7851L295.3 545.69L338.768 545.69L338.768 51.7851L295.3 51.7851Z" fill="#27AE60"/>
<path d="M378.051 51.7851L378.051 545.69L421.519 545.69L421.519 51.7851L378.051 51.7851Z" fill="#27AE60"/>
<path d="M460.786 51.7851L460.786 545.69L504.254 545.69L504.254 51.7851L460.786 51.7851Z" fill="#27AE60"/>
<path d="M543.523 51.7851L543.523 545.69L586.992 545.69L586.992 51.7851L543.523 51.7851Z" fill="#27AE60"/>
<path d="M626.261 51.7851L626.261 545.69L669.729 545.69L669.729 51.7851L626.261 51.7851Z" fill="#27AE60"/>
<path d="M708.996 51.7851L708.996 545.69L752.464 545.69L752.464 51.7851L708.996 51.7851Z" fill="#27AE60"/>
<path d="M45.3623 50.0767L45.3623 139.749L45.3623 218.389L45.3623 379.103L45.3623 457.743L45.3623 547.415L790.402 547.415L790.402 457.743L790.402 379.103L790.402 218.389L790.402 139.749L790.402 50.0766L45.3623 50.0767ZM786.966 66.1892C784.889 66.1892 781.04 65.7772 777.878 63.2138C775.236 61.0777 773.602 57.8125 772.991 53.4944L786.966 53.4944L786.966 66.1892ZM416.172 294.069C414.263 294.771 412.888 296.587 412.888 298.753C412.888 300.905 414.263 302.736 416.172 303.438L416.172 370.528C377.316 369.612 345.99 337.768 345.99 298.738C345.99 259.708 377.316 227.864 416.172 226.949L416.172 294.069ZM419.608 303.422C421.518 302.721 422.892 300.905 422.892 298.738C422.892 296.587 421.518 294.756 419.608 294.054L419.608 226.949C458.464 227.864 489.79 259.708 489.79 298.738C489.79 337.768 458.464 369.612 419.608 370.528L419.608 303.422ZM62.7741 53.5097C62.1631 57.8125 60.5289 61.0625 57.9171 63.1987C54.786 65.762 50.8913 66.174 48.7988 66.1892L48.7988 53.5097L62.7741 53.5097ZM48.7988 221.822L95.2149 221.822L95.2149 375.67L48.7989 375.67L48.7988 221.822ZM98.6668 379.103L98.6667 218.389L48.7988 218.389L48.7988 143.182L174.225 143.182L174.225 235.142L174.225 362.365L174.225 454.31L48.7989 454.31L48.7989 379.103L98.6668 379.103ZM177.676 241.81C195.348 255.375 205.81 276.416 205.81 298.753C205.81 321.091 195.363 342.132 177.676 355.697L177.676 241.81ZM177.676 457.743L177.676 359.923C197.44 345.794 209.247 322.999 209.247 298.738C209.247 274.478 197.456 251.682 177.676 237.553L177.676 139.733L48.7988 139.733L48.7988 69.607C51.3953 69.5917 56.0996 69.073 60.0554 65.8688C63.4919 63.0766 65.5538 58.9111 66.2259 53.4944L416.172 53.4944L416.172 223.531C375.422 224.446 342.554 257.831 342.554 298.738C342.554 339.66 375.422 373.03 416.172 373.961L416.172 543.982L66.2259 543.982C65.5539 538.565 63.4919 534.4 60.0554 531.608C56.0996 528.403 51.3954 527.885 48.7989 527.869L48.7989 457.743L177.676 457.743ZM48.7989 531.302C50.8761 531.302 54.725 531.714 57.8866 534.278C60.5289 536.414 62.1632 539.679 62.7741 543.997L48.7989 543.997L48.7989 531.302ZM772.991 543.982C773.602 539.694 775.236 536.429 777.848 534.293C780.979 531.73 784.873 531.318 786.966 531.318L786.966 543.997L772.991 543.997L772.991 543.982ZM786.966 375.67L740.55 375.67L740.55 221.822L786.966 221.822L786.966 375.67ZM737.113 218.389L737.113 379.103L786.966 379.103L786.966 454.31L661.54 454.31L661.54 362.349L661.54 235.127L661.54 143.166L786.966 143.166L786.966 218.374L737.113 218.374L737.113 218.389ZM658.104 355.697C640.432 342.132 629.97 321.091 629.97 298.753C629.97 276.416 640.417 255.375 658.104 241.81L658.104 355.697ZM658.104 139.749L658.104 237.568C638.324 251.697 626.533 274.493 626.533 298.753C626.533 323.014 638.324 345.809 658.104 359.938L658.104 457.743L786.966 457.743L786.966 527.869C784.369 527.869 779.665 528.388 775.709 531.608C772.273 534.4 770.211 538.565 769.539 543.982L419.608 543.982L419.608 373.961C460.358 373.045 493.226 339.66 493.226 298.738C493.226 257.816 460.358 224.446 419.608 223.531L419.608 53.5097L769.554 53.5097C770.226 58.9263 772.288 63.107 775.725 65.884C779.68 69.0882 784.385 69.607 786.981 69.6223L786.981 139.749L658.104 139.749Z" fill="white"/>
<path d="M700.441 293.611C697.6 293.611 695.309 295.915 695.309 298.738C695.309 301.576 697.615 303.864 700.441 303.864C703.281 303.864 705.588 301.576 705.588 298.738C705.572 295.915 703.281 293.611 700.441 293.611Z" fill="white"/>
<path d="M135.34 303.88C138.181 303.88 140.472 301.591 140.472 298.753C140.472 295.915 138.166 293.626 135.34 293.626C132.499 293.626 130.208 295.93 130.208 298.753C130.193 301.576 132.499 303.88 135.34 303.88Z" fill="white"/>
</svg>
