<svg width="151" height="40" viewBox="0 0 151 40" fill="none" xmlns="http://www.w3.org/2000/svg">
<g clip-path="url(#clip0_15922_57331)">
<path d="M56.0237 8.18066H47.734C47.1667 8.18066 46.6843 8.59279 46.5958 9.15279L43.2431 30.4098C43.1764 30.8292 43.5013 31.2073 43.9267 31.2073H47.8843C48.4516 31.2073 48.934 30.7952 49.0225 30.234L49.9267 24.5007C50.014 23.9395 50.4976 23.5273 51.0637 23.5273H53.6879C59.1485 23.5273 62.3001 20.8849 63.1231 15.6485C63.494 13.3576 63.1388 11.5576 62.0661 10.297C60.8879 8.91279 58.7982 8.18066 56.0237 8.18066ZM56.98 15.9443C56.5267 18.9188 54.254 18.9188 52.0564 18.9188H50.8055L51.6831 13.3637C51.7352 13.0279 52.0261 12.7807 52.3655 12.7807H52.9388C54.4358 12.7807 55.8479 12.7807 56.5776 13.634C57.0128 14.1431 57.1461 14.8995 56.98 15.9443Z" fill="#253B80"/>
<path d="M80.7913 15.8489H76.8217C76.4835 15.8489 76.1913 16.0962 76.1392 16.4319L75.9635 17.5423L75.6859 17.1398C74.8265 15.8926 72.9101 15.4756 70.9974 15.4756C66.6107 15.4756 62.8641 18.798 62.1344 23.4586C61.755 25.7835 62.2944 28.0065 63.6132 29.5568C64.8229 30.9823 66.5538 31.5762 68.6132 31.5762C72.1477 31.5762 74.1077 29.3035 74.1077 29.3035L73.9307 30.4065C73.8641 30.8283 74.1889 31.2065 74.612 31.2065H78.1877C78.7562 31.2065 79.2362 30.7944 79.3259 30.2332L81.4713 16.6465C81.5392 16.2283 81.2156 15.8489 80.7913 15.8489ZM75.258 23.575C74.875 25.8429 73.075 27.3653 70.7792 27.3653C69.6265 27.3653 68.7053 26.9956 68.1138 26.295C67.5271 25.5992 67.3041 24.6089 67.4907 23.5059C67.8483 21.2574 69.6786 19.6853 71.9392 19.6853C73.0665 19.6853 73.9829 20.0598 74.5865 20.7665C75.1913 21.4804 75.4313 22.4768 75.258 23.575Z" fill="#253B80"/>
<path d="M101.945 15.8486H97.9554C97.5748 15.8486 97.2172 16.0377 97.0015 16.3541L91.4997 24.4583L89.1676 16.6705C89.0209 16.1832 88.5712 15.8486 88.0621 15.8486H84.1421C83.6657 15.8486 83.3348 16.3141 83.4863 16.7626L87.8803 29.6571L83.7494 35.4886C83.4245 35.948 83.7518 36.5795 84.313 36.5795H88.2972C88.6754 36.5795 89.0294 36.3953 89.2439 36.085L102.512 16.9335C102.829 16.4753 102.503 15.8486 101.945 15.8486Z" fill="#253B80"/>
<path d="M115.149 8.18066H106.858C106.292 8.18066 105.809 8.59279 105.721 9.15279L102.368 30.4098C102.301 30.8292 102.626 31.2073 103.049 31.2073H107.304C107.699 31.2073 108.037 30.9188 108.099 30.5261L109.051 24.5007C109.138 23.9395 109.621 23.5273 110.187 23.5273H112.811C118.272 23.5273 121.423 20.8849 122.247 15.6485C122.619 13.3576 122.261 11.5576 121.189 10.297C120.012 8.91279 117.923 8.18066 115.149 8.18066ZM116.105 15.9443C115.653 18.9188 113.38 18.9188 111.181 18.9188H109.932L110.811 13.3637C110.863 13.0279 111.151 12.7807 111.492 12.7807H112.065C113.561 12.7807 114.974 12.7807 115.704 13.634C116.139 14.1431 116.271 14.8995 116.105 15.9443Z" fill="#179BD7"/>
<path d="M139.927 15.8489H135.96C135.619 15.8489 135.329 16.0962 135.278 16.4319L135.103 17.5423L134.824 17.1398C133.964 15.8926 132.049 15.4756 130.136 15.4756C125.75 15.4756 122.004 18.798 121.275 23.4586C120.896 25.7835 121.433 28.0065 122.752 29.5568C123.964 30.9823 125.693 31.5762 127.752 31.5762C131.287 31.5762 133.247 29.3035 133.247 29.3035L133.07 30.4065C133.003 30.8283 133.328 31.2065 133.753 31.2065H137.328C137.894 31.2065 138.376 30.7944 138.465 30.2332L140.612 16.6465C140.677 16.2283 140.352 15.8489 139.927 15.8489ZM134.393 23.575C134.013 25.8429 132.21 27.3653 129.915 27.3653C128.764 27.3653 127.841 26.9956 127.249 26.295C126.663 25.5992 126.442 24.6089 126.626 23.5059C126.986 21.2574 128.814 19.6853 131.075 19.6853C132.202 19.6853 133.118 20.0598 133.722 20.7665C134.329 21.4804 134.569 22.4768 134.393 23.575Z" fill="#179BD7"/>
<path d="M144.61 8.76393L141.208 30.41C141.141 30.8294 141.466 31.2076 141.889 31.2076H145.31C145.878 31.2076 146.361 30.7954 146.448 30.2342L149.803 8.97848C149.87 8.55908 149.545 8.17969 149.122 8.17969H145.292C144.953 8.1809 144.662 8.42817 144.61 8.76393Z" fill="#179BD7"/>
<path d="M8.81809 35.3382L9.45203 31.3115L8.03991 31.2788H1.29688L5.98294 1.56606C5.99748 1.47636 6.04475 1.39273 6.11384 1.33333C6.18294 1.27394 6.27142 1.24121 6.36354 1.24121H17.7332C21.5078 1.24121 24.1126 2.02667 25.4726 3.57697C26.1102 4.30424 26.5163 5.06424 26.7126 5.9006C26.9187 6.77818 26.9223 7.82667 26.7211 9.10545L26.7066 9.19879V10.0182L27.3441 10.3794C27.8811 10.6642 28.3078 10.9903 28.6351 11.3636C29.1805 11.9855 29.5332 12.7758 29.6823 13.7127C29.8363 14.6764 29.7854 15.823 29.5332 17.1212C29.2423 18.6145 28.772 19.9152 28.1369 20.9794C27.5526 21.96 26.8084 22.7733 25.9248 23.4036C25.0811 24.0024 24.0787 24.457 22.9454 24.7479C21.8472 25.0339 20.5951 25.1782 19.2217 25.1782H18.3369C17.7041 25.1782 17.0896 25.4061 16.6072 25.8145C16.1235 26.2315 15.8035 26.8012 15.7054 27.4242L15.6387 27.7867L14.5187 34.8836L14.4678 35.1442C14.4544 35.2267 14.4314 35.2679 14.3975 35.2958C14.3672 35.3212 14.3235 35.3382 14.2811 35.3382H8.81809Z" fill="#253B80"/>
<path d="M27.9477 9.29297C27.9137 9.50994 27.875 9.73176 27.8313 9.95964C26.3319 17.6578 21.2022 20.3172 14.6507 20.3172H11.315C10.5137 20.3172 9.83859 20.899 9.71374 21.6893L8.00586 32.5209L7.52222 35.5912C7.44101 36.1099 7.84101 36.5778 8.36465 36.5778H14.281C14.9816 36.5778 15.5768 36.0687 15.6871 35.3778L15.7453 35.0772L16.8592 28.0081L16.9307 27.6202C17.0398 26.9269 17.6362 26.4178 18.3368 26.4178H19.2216C24.9537 26.4178 29.441 24.0905 30.7525 17.356C31.3004 14.5427 31.0168 12.1936 29.5671 10.5415C29.1283 10.0433 28.584 9.62994 27.9477 9.29297Z" fill="#179BD7"/>
<path d="M26.3686 8.66807C26.1395 8.6014 25.9031 8.54079 25.6607 8.48625C25.4171 8.43291 25.1674 8.38564 24.9104 8.34443C24.011 8.19897 23.0255 8.12988 21.9698 8.12988H13.0583C12.8389 8.12988 12.6304 8.17958 12.4437 8.26928C12.0328 8.46685 11.7274 8.85594 11.6534 9.33231L9.75767 21.3396L9.70312 21.6899C9.82797 20.8996 10.5031 20.3178 11.3043 20.3178H14.6401C21.1916 20.3178 26.3213 17.6572 27.8207 9.96019C27.8655 9.73231 27.9031 9.51049 27.9371 9.29352C27.5577 9.09231 27.1468 8.92019 26.7043 8.77352C26.5952 8.73716 26.4825 8.702 26.3686 8.66807Z" fill="#222D65"/>
<path d="M11.6533 9.33212C11.7273 8.85576 12.0327 8.46667 12.4436 8.2703C12.6315 8.18061 12.8388 8.13091 13.0582 8.13091H21.9697C23.0254 8.13091 24.0109 8.2 24.9103 8.34546C25.1673 8.38667 25.417 8.43394 25.6606 8.48727C25.903 8.54182 26.1394 8.60242 26.3685 8.66909C26.4824 8.70303 26.5951 8.73818 26.7054 8.77333C27.1479 8.92 27.5588 9.09333 27.9382 9.29333C28.3842 6.44848 27.9345 4.51152 26.3964 2.75758C24.7006 0.826667 21.64 0 17.7236 0H6.35393C5.55393 0 4.8715 0.581818 4.74787 1.37333L0.0121077 31.3915C-0.0812257 31.9855 0.376956 32.5212 0.975744 32.5212H7.99514L9.75756 21.3394L11.6533 9.33212Z" fill="#253B80"/>
</g>
<defs>
<clipPath id="clip0_15922_57331">
<rect width="150.303" height="40" fill="white"/>
</clipPath>
</defs>
</svg>
