<svg width="190" height="40" viewBox="0 0 190 40" fill="none" xmlns="http://www.w3.org/2000/svg">
<g clip-path="url(#clip0_15922_57342)">
<path fill-rule="evenodd" clip-rule="evenodd" d="M45.0845 15.1116C44.7862 16.2244 44.2082 17.0412 43.3502 17.5627C42.4913 18.0841 41.2866 18.3453 39.7327 18.3453H34.7958L36.5289 11.8784H41.4657C43.0184 11.8784 44.0845 12.1392 44.6636 12.6605C45.2417 13.1825 45.3827 13.9994 45.0845 15.1116ZM50.197 14.9723C50.8248 12.6322 50.5646 10.8356 49.4167 9.58404C48.2685 8.33247 46.2569 7.70703 43.3837 7.70703H32.3633L25.7305 32.4592H31.0846L33.7588 22.4816H37.27C38.0574 22.4816 38.6771 22.6093 39.1304 22.8642C39.5846 23.1197 39.8506 23.5718 39.9327 24.2198L40.8877 32.4592H46.6244L45.6938 24.7766C45.5041 23.0613 44.7192 22.0532 43.3398 21.752C45.0984 21.2427 46.5713 20.3958 47.7575 19.2137C48.9426 18.0321 49.7565 16.6187 50.197 14.9723Z" fill="#072654"/>
<path fill-rule="evenodd" clip-rule="evenodd" d="M63.2056 23.5937C62.7582 25.2621 62.0691 26.5373 61.1384 27.4177C60.2066 28.2987 59.092 28.7387 57.7948 28.7387C56.4722 28.7387 55.575 28.3045 55.1021 27.435C54.6269 26.5662 54.6107 25.3094 55.0524 23.6631C55.4929 22.0179 56.1958 20.7317 57.1635 19.8038C58.13 18.8777 59.262 18.4136 60.5602 18.4136C61.8575 18.4136 62.7362 18.8605 63.1916 19.7524C63.6473 20.6444 63.653 21.9248 63.2056 23.5937ZM65.5525 14.8329L64.882 17.3361C64.5918 16.4319 64.0311 15.7139 63.2009 15.181C62.3697 14.648 61.3396 14.3809 60.1116 14.3809C58.6052 14.3809 57.1565 14.7694 55.7669 15.5457C54.3772 16.3226 53.162 17.4176 52.1227 18.8309C51.0833 20.2449 50.3214 21.8555 49.8369 23.6631C49.3525 25.4713 49.2554 27.0645 49.5468 28.4432C49.8381 29.8226 50.4694 30.8827 51.4416 31.6244C52.4129 32.3666 53.6639 32.7366 55.1934 32.7366C56.4213 32.7366 57.5913 32.4817 58.7013 31.9718C59.8111 31.4626 60.7533 30.755 61.5291 29.8514L60.8298 32.4586H66.0092L70.7322 14.8329H65.5525Z" fill="#072654"/>
<path fill-rule="evenodd" clip-rule="evenodd" d="M89.3574 14.833H74.3042L73.2521 18.7617H82.0123L70.4299 28.7734L69.4414 32.4586H84.9814L86.0345 28.5306H76.649L88.4071 18.3789L89.3574 14.833Z" fill="#072654"/>
<path fill-rule="evenodd" clip-rule="evenodd" d="M102.609 23.559C102.143 25.2967 101.453 26.5956 100.539 27.453C99.6261 28.3102 98.5208 28.7386 97.2236 28.7386C94.5112 28.7386 93.6186 27.013 94.5436 23.559C95.0038 21.8438 95.6974 20.5518 96.6247 19.683C97.553 18.8136 98.6769 18.3789 99.9984 18.3789C101.296 18.3789 102.171 18.8136 102.622 19.683C103.072 20.5518 103.069 21.8438 102.609 23.559ZM105.639 15.4931C104.447 14.7519 102.925 14.3809 101.07 14.3809C99.1925 14.3809 97.4536 14.7519 95.8524 15.4931C94.2511 16.2353 92.8879 17.3014 91.7631 18.6916C90.6369 20.0824 89.8253 21.7046 89.3281 23.559C88.831 25.4135 88.7732 27.035 89.1548 28.4258C89.5351 29.8167 90.3259 30.8827 91.5306 31.6244C92.7342 32.3666 94.2742 32.7366 96.1519 32.7366C98.0062 32.7366 99.7277 32.3666 101.318 31.6244C102.905 30.8827 104.263 29.8167 105.389 28.4258C106.514 27.035 107.326 25.4135 107.823 23.559C108.32 21.7046 108.378 20.0824 107.998 18.6916C107.616 17.3014 106.83 16.2353 105.639 15.4931Z" fill="#072654"/>
<path fill-rule="evenodd" clip-rule="evenodd" d="M159.818 23.5937C159.371 25.2621 158.682 26.5373 157.751 27.4177C156.82 28.2987 155.704 28.7387 154.406 28.7387C153.086 28.7387 152.188 28.3045 151.715 27.435C151.24 26.5662 151.224 25.3094 151.665 23.6631C152.106 22.0179 152.809 20.7317 153.776 19.8038C154.743 18.8777 155.875 18.4136 157.173 18.4136C158.47 18.4136 159.349 18.8605 159.804 19.7524C160.26 20.6444 160.266 21.9248 159.818 23.5937ZM162.165 14.8329L161.495 17.3361C161.205 16.4319 160.644 15.7139 159.814 15.181C158.983 14.648 157.952 14.3809 156.724 14.3809C155.218 14.3809 153.769 14.7694 152.38 15.5457C150.99 16.3226 149.775 17.4176 148.736 18.8309C147.696 20.2449 146.934 21.8555 146.45 23.6631C145.965 25.4713 145.869 27.0645 146.16 28.4432C146.451 29.8226 147.081 30.8827 148.054 31.6244C149.026 32.3666 150.277 32.7366 151.806 32.7366C153.034 32.7366 154.204 32.4817 155.314 31.9718C156.424 31.4626 157.366 30.755 158.142 29.8514L157.443 32.4586H162.622L167.345 14.8329H162.165Z" fill="#072654"/>
<path fill-rule="evenodd" clip-rule="evenodd" d="M124.11 19.5615L125.43 14.7639C124.981 14.5321 124.387 14.416 123.646 14.416C122.463 14.416 121.324 14.7114 120.227 15.3027C119.285 15.81 118.483 16.5221 117.805 17.4144L118.492 14.8309L116.992 14.8334H113.314L108.555 32.4589H113.806L116.274 23.2467C116.634 21.9027 117.279 20.854 118.212 20.1008C119.143 19.3476 120.305 18.9706 121.696 18.9706C122.553 18.9706 123.357 19.1677 124.11 19.5615Z" fill="#072654"/>
<path fill-rule="evenodd" clip-rule="evenodd" d="M138.728 23.6634C138.286 25.3098 137.601 26.5666 136.674 27.4354C135.745 28.3048 134.632 28.7389 133.335 28.7389C132.037 28.7389 131.152 28.299 130.682 27.418C130.21 26.5376 130.199 25.2629 130.646 23.594C131.093 21.9252 131.789 20.6447 132.735 19.7527C133.681 18.8607 134.804 18.4139 136.102 18.4139C137.376 18.4139 138.242 18.8781 138.701 19.8048C139.159 20.732 139.168 22.0187 138.728 23.6634ZM142.397 15.546C141.423 14.7697 140.182 14.3818 138.677 14.3818C137.355 14.3818 136.097 14.683 134.906 15.2854C133.712 15.8889 132.745 16.7103 132.002 17.7537L132.019 17.6381L132.901 14.8308H131.886V14.8333H127.775L126.47 19.7073C126.455 19.764 126.442 19.8168 126.427 19.8741L121.043 39.9682H126.293L129.004 29.8524C129.27 30.7553 129.823 31.4628 130.66 31.9722C131.497 32.482 132.529 32.7369 133.758 32.7369C135.288 32.7369 136.742 32.367 138.124 31.6247C139.505 30.8836 140.705 29.8228 141.722 28.4436C142.741 27.0654 143.492 25.4716 143.977 23.6634C144.461 21.8558 144.561 20.2453 144.281 18.8313C144 17.4178 143.371 16.323 142.397 15.546Z" fill="#072654"/>
<path fill-rule="evenodd" clip-rule="evenodd" d="M189.081 14.8379L189.084 14.833H185.904C185.803 14.833 185.713 14.8359 185.62 14.8379H183.97L183.126 16.0138C183.058 16.1023 182.99 16.1915 182.917 16.295L182.826 16.4311L176.118 25.7726L174.727 14.833H169.233L172.015 31.4562L165.871 39.9679H166.046H169.183H171.345L172.834 37.8585C172.878 37.7957 172.915 37.7442 172.962 37.6778L174.7 35.2143L174.75 35.1437L182.525 24.1219L189.076 14.8452L189.084 14.8379H189.081Z" fill="#072654"/>
<path fill-rule="evenodd" clip-rule="evenodd" d="M12.2357 10.5424L10.6641 16.3263L19.6572 10.5099L13.776 32.4534L19.7484 32.4589L28.4364 0.0478516L12.2357 10.5424Z" fill="#3395FF"/>
<path fill-rule="evenodd" clip-rule="evenodd" d="M2.55455 23.2344L0.0820312 32.4592H12.324C12.324 32.4592 17.3313 13.6978 17.3327 13.6924C17.328 13.6954 2.55455 23.2344 2.55455 23.2344Z" fill="#072654"/>
</g>
<defs>
<clipPath id="clip0_15922_57342">
<rect width="189.127" height="40" fill="white"/>
</clipPath>
</defs>
</svg>
