<svg width="24" height="23" viewBox="0 0 24 23" fill="none" xmlns="http://www.w3.org/2000/svg">
<path d="M23.4797 10.4204C23.7107 10.1969 23.874 9.91286 23.951 9.60084C24.028 9.28883 24.0156 8.96144 23.9151 8.65616C23.8169 8.35001 23.6345 8.07771 23.3887 7.87048C23.1429 7.66326 22.8436 7.52949 22.5253 7.48452L16.7142 6.64014C16.5923 6.62243 16.4765 6.57534 16.3769 6.50291C16.2772 6.43049 16.1967 6.33492 16.1423 6.22444L13.5443 0.959244C13.4031 0.670498 13.1834 0.427371 12.9104 0.257719C12.6374 0.0880676 12.3221 -0.00124547 12.0007 1.31206e-05C11.6793 -0.00115505 11.3641 0.0882006 11.0912 0.257847C10.8183 0.427493 10.5987 0.670572 10.4575 0.959244L7.85905 6.22492C7.74851 6.44935 7.53418 6.60458 7.28668 6.64062L1.47555 7.485C1.1572 7.52997 0.857965 7.66374 0.61215 7.87096C0.366335 8.07819 0.183886 8.35049 0.0857174 8.65664C-0.0147318 8.96192 -0.0271662 9.28931 0.0498385 9.60132C0.126843 9.91334 0.290173 10.1974 0.52112 10.4208L4.72569 14.5192C4.90494 14.6941 4.98712 14.9459 4.94483 15.192L3.95292 20.9791C3.90804 21.225 3.91844 21.4778 3.98336 21.7192C4.04827 21.9606 4.16608 22.1845 4.32825 22.3747C4.84054 22.9836 5.7349 23.1691 6.44999 22.7933L11.647 20.0607C11.7565 20.0048 11.8777 19.9757 12.0007 19.9757C12.1236 19.9757 12.2448 20.0048 12.3544 20.0607L17.5518 22.7933C17.7982 22.9247 18.0732 22.9935 18.3524 22.9937C18.8604 22.9937 19.3419 22.7678 19.6731 22.3747C19.8353 22.1845 19.9531 21.9606 20.018 21.7192C20.0829 21.4778 20.0933 21.225 20.0484 20.9791L19.056 15.192C19.0352 15.0705 19.0444 14.9458 19.0825 14.8286C19.1207 14.7113 19.1868 14.6052 19.2751 14.5192L23.4797 10.4204Z" fill="#0A0A0A"/>
</svg>
