<svg width="22" height="24" viewBox="0 0 22 24" fill="none" xmlns="http://www.w3.org/2000/svg">
<path d="M7.6744 19.4088L8.19092 17.3114L9.66222 18.7827L7.88831 21.047C7.26744 21.8348 7.40831 22.9827 8.20135 23.6088C8.53005 23.8696 8.92657 23.9948 9.31787 23.9948C9.86048 23.9948 10.4031 23.7548 10.7631 23.2957L13.184 20.2175C13.5546 19.7427 13.7394 19.1492 13.7039 18.548C13.6683 17.9468 13.4149 17.3791 12.9909 16.9514L10.9196 14.8644L12.9544 10.7114L14.3944 11.3844C15.3127 11.8644 16.424 11.6192 17.0344 10.7948L20.1127 6.70441C20.624 6.02093 20.4987 5.06615 19.8257 4.53397C19.4866 4.2731 19.0692 4.16354 18.6518 4.22093C18.2344 4.27832 17.864 4.49745 17.6083 4.83658L15.0622 8.19658L13.904 7.70615C13.8792 7.68555 13.8509 7.66963 13.8205 7.65919L10.4814 6.12006C10.1256 5.95821 9.73125 5.90033 9.34396 5.9531L4.52309 6.59484C3.99092 6.70963 3.56309 7.08528 3.37527 7.59658L2.47787 10.1531C2.337 10.5496 2.35787 10.9775 2.5457 11.3583C2.72831 11.7392 3.04657 12.0209 3.44309 12.1566C4.257 12.4331 5.14918 12.0001 5.43092 11.1861L6.06222 9.38093L7.84135 9.24006L6.30222 12.4122L4.96657 15.167C4.95613 15.1983 4.94048 15.2296 4.93526 15.2609L4.30918 17.6192L0.630917 20.7809C0.265159 21.0984 0.0400481 21.5478 0.0048473 22.0308C-0.0303535 22.5139 0.127222 22.9912 0.443091 23.3583C0.761352 23.7235 1.20483 23.9479 1.69005 23.9844C2.17526 24.0209 2.64483 23.8644 3.01526 23.5461L7.50744 19.6801C7.5857 19.6122 7.64831 19.5183 7.6744 19.4088Z" fill="#0A0A0A"/>
<path d="M18.2593 24.0001C19.9882 24.0001 21.3898 22.5986 21.3898 20.8697C21.3898 19.1408 19.9882 17.7393 18.2593 17.7393C16.5304 17.7393 15.1289 19.1408 15.1289 20.8697C15.1289 22.5986 16.5304 24.0001 18.2593 24.0001Z" fill="#0A0A0A"/>
<path d="M13.232 6.26087C14.9609 6.26087 16.3624 4.85933 16.3624 3.13043C16.3624 1.40154 14.9609 0 13.232 0C11.5031 0 10.1016 1.40154 10.1016 3.13043C10.1016 4.85933 11.5031 6.26087 13.232 6.26087Z" fill="#0A0A0A"/>
</svg>
