<svg width="24" height="24" viewBox="0 0 24 24" fill="none" xmlns="http://www.w3.org/2000/svg">
<path d="M12.5062 11.5163C12.5023 11.5122 12.5011 11.5067 12.4971 11.5027L8.48442 7.48997V4.96861C8.48442 4.78182 8.41026 4.60332 8.27845 4.47146L4.0597 0.205878C3.96133 0.107576 3.83604 0.040634 3.69965 0.0135104C3.56325 -0.0136133 3.42188 0.000298306 3.29339 0.0534875C3.16487 0.106631 3.05503 0.196729 2.97777 0.312364C2.90051 0.427999 2.85932 0.563966 2.85942 0.703034V2.81241H0.703168C0.564107 2.81229 0.428143 2.85347 0.312513 2.93072C0.196884 3.00797 0.106795 3.11782 0.0536676 3.24633C0.000340154 3.3748 -0.0136406 3.51621 0.0134977 3.65264C0.040636 3.78907 0.107671 3.91436 0.206105 4.01264L4.47173 8.27822C4.53699 8.34354 4.61448 8.39536 4.69978 8.43071C4.78508 8.46606 4.87651 8.48425 4.96884 8.48424H7.4902L11.5029 12.4969C11.5069 12.501 11.5124 12.5021 11.5165 12.506C11.7903 12.7673 12.2061 12.7708 12.4835 12.506C12.7756 12.2272 12.7691 11.7917 12.5062 11.5163Z" fill="#0A0A0A"/>
<path d="M11.9999 0C10.2008 0 8.49975 0.457734 6.96797 1.17272L9.12487 3.32962C10.0301 3.02859 10.995 2.85938 12 2.85938C17.0399 2.85933 21.1405 6.95995 21.1405 11.9999C21.1405 17.0399 17.0399 21.1405 11.9999 21.1405C6.95991 21.1405 2.85933 17.0399 2.85933 11.9999C2.85933 10.9949 3.02859 10.0301 3.32958 9.12483L1.17267 6.96792C0.457781 8.49975 0 10.2008 0 11.9999C0 18.591 5.40886 23.9999 11.9999 23.9999C18.591 23.9999 23.9999 18.591 23.9999 11.9999C23.9999 5.40886 18.591 0 11.9999 0Z" fill="#0A0A0A"/>
<path d="M12 5.67188C11.2568 5.67188 10.5536 5.82422 9.89058 6.06061V6.90783L11.5161 8.53331C11.6757 8.511 11.8343 8.48438 12 8.48438C13.9384 8.48438 15.5156 10.0616 15.5156 12C15.5156 13.9384 13.9384 15.5156 12 15.5156C10.0615 15.5156 8.48433 13.9384 8.48433 12C8.48433 11.8343 8.51095 11.6757 8.53327 11.5161L6.90783 9.89058H6.06061C5.82422 10.5536 5.67188 11.2567 5.67188 12C5.67188 15.4895 8.51048 18.328 12 18.328C15.4894 18.328 18.3281 15.4895 18.3281 12C18.3281 8.51044 15.4895 5.67188 12 5.67188Z" fill="#0A0A0A"/>
</svg>
