<svg width="20" height="12" viewBox="0 0 20 12" fill="none" xmlns="http://www.w3.org/2000/svg">
<path fill-rule="evenodd" clip-rule="evenodd" d="M19.6947 0.293763C19.8822 0.481291 19.9875 0.735599 19.9875 1.00076C19.9875 1.26593 19.8822 1.52024 19.6947 1.70776L11.6947 9.70776C11.5072 9.89523 11.2529 10.0005 10.9877 10.0005C10.7225 10.0005 10.4682 9.89523 10.2807 9.70776L7.34071 6.76776C7.24695 6.67403 7.1198 6.62137 6.98721 6.62137C6.85463 6.62137 6.72748 6.67403 6.63371 6.76776L1.69471 11.7078C1.50611 11.8899 1.25351 11.9907 0.991311 11.9884C0.729114 11.9862 0.478301 11.881 0.292893 11.6956C0.107485 11.5102 0.00231622 11.2594 3.78026e-05 10.9972C-0.00224062 10.735 0.0985537 10.4824 0.280712 10.2938L6.28071 4.29376C6.46824 4.10629 6.72255 4.00098 6.98771 4.00098C7.25288 4.00098 7.50718 4.10629 7.69471 4.29376L10.6347 7.23376C10.7285 7.3275 10.8556 7.38016 10.9882 7.38016C11.1208 7.38016 11.2479 7.3275 11.3417 7.23376L18.2807 0.293763C18.4682 0.106292 18.7225 0.000976562 18.9877 0.000976562C19.2529 0.000976562 19.5072 0.106292 19.6947 0.293763Z" fill="#27AE60"/>
<path fill-rule="evenodd" clip-rule="evenodd" d="M13.9883 1C13.9883 0.734784 14.0936 0.48043 14.2812 0.292893C14.4687 0.105357 14.7231 0 14.9883 0H18.9883C19.2535 0 19.5079 0.105357 19.6954 0.292893C19.8829 0.48043 19.9883 0.734784 19.9883 1V5C19.9883 5.26522 19.8829 5.51957 19.6954 5.70711C19.5079 5.89464 19.2535 6 18.9883 6C18.7231 6 18.4687 5.89464 18.2812 5.70711C18.0936 5.51957 17.9883 5.26522 17.9883 5V2.5C17.9883 2.36739 17.9356 2.24021 17.8418 2.14645C17.7481 2.05268 17.6209 2 17.4883 2H14.9883C14.7231 2 14.4687 1.89464 14.2812 1.70711C14.0936 1.51957 13.9883 1.26522 13.9883 1Z" fill="#27AE60"/>
</svg>
