<svg width="23" height="24" viewBox="0 0 23 24" fill="none" xmlns="http://www.w3.org/2000/svg">
<path d="M22.025 3.51313L20.0094 18.8443C19.8721 19.8868 18.9121 20.6135 17.8768 20.4763L16.8005 20.3323L14.7916 5.06976C14.6199 3.78726 13.523 2.82051 12.227 2.82051C12.1175 2.82051 12.0009 2.82726 11.891 2.84113L7.70188 3.38976L7.928 1.65501C7.96027 1.40731 8.04105 1.1684 8.16572 0.951939C8.2904 0.735483 8.45652 0.545728 8.65459 0.393527C8.85266 0.241326 9.0788 0.129665 9.32006 0.0649295C9.56132 0.000194002 9.81297 -0.0163455 10.0606 0.0162568L20.3866 1.38088C20.6343 1.41315 20.8732 1.49392 21.0896 1.61857C21.306 1.74322 21.4958 1.90931 21.648 2.10734C21.8002 2.30537 21.9118 2.53145 21.9766 2.77267C22.0413 3.01389 22.0576 3.2655 22.025 3.51313ZM16.1289 20.4916L14.1114 5.16051C14.0788 4.91294 13.9979 4.67421 13.873 4.45795C13.7482 4.24169 13.5821 4.05212 13.384 3.90009C13.1859 3.74805 12.9598 3.63652 12.7187 3.57187C12.4775 3.50721 12.2259 3.49069 11.9784 3.52326L1.65313 4.88226C1.15322 4.94806 0.699922 5.20975 0.392951 5.60976C0.0859806 6.00978 -0.049521 6.51534 0.0162529 7.01526L2.03338 22.346C2.06592 22.5936 2.1469 22.8323 2.27171 23.0486C2.39651 23.2648 2.5627 23.4544 2.76077 23.6064C2.95884 23.7585 3.18492 23.87 3.42609 23.9346C3.66727 23.9993 3.91882 24.0158 4.16638 23.9833L14.4916 22.6246C14.7392 22.5921 14.9779 22.5111 15.1942 22.3863C15.4104 22.2615 15.6 22.0953 15.752 21.8972C15.9041 21.6992 16.0156 21.4731 16.0803 21.2319C16.1449 20.9907 16.1614 20.7392 16.1289 20.4916Z" fill="#0A0A0A"/>
</svg>
