<?xml version="1.0" encoding="UTF-8"?>
<svg id="Layer_2" data-name="Layer 2" xmlns="http://www.w3.org/2000/svg" viewBox="0 0 534.25 517.93">
  <defs>
    <style>
      .cls-1 {
        fill: #fff;
      }
    </style>
  </defs>
  <g id="Layer_1-2" data-name="Layer 1">
    <path class="cls-1" d="M211.17,205.92c-4.44,0-7.56,4.56-5.81,8.63,10.25,24.01,34.06,40.89,61.77,40.89s51.52-16.88,61.76-40.89c1.74-4.08-1.37-8.63-5.81-8.63h-111.91ZM377.43,205.92c-5.22,0-9.87,3.44-11.2,8.48-11.6,43.93-51.58,76.42-99.1,76.42s-87.5-32.49-99.1-76.42c-1.34-5.04-5.99-8.48-11.2-8.48H10.13C4.54,205.92,0,210.47,0,216.06v160.43s0,128.13,0,128.13c0,11.83,14.31,17.76,22.69,9.4l130.03-130.03c4.8-4.8,11.31-7.5,18.11-7.5h245.66c16.92,0,30.64-13.72,30.64-30.64v-129.78c0-5.59-4.54-10.13-10.13-10.13h-59.57ZM205.35,161.91c-1.74,4.08,1.37,8.63,5.81,8.63h111.91c4.44,0,7.55-4.55,5.81-8.63-10.25-24.01-34.05-40.9-61.76-40.9s-51.52,16.89-61.77,40.9M30.64,0C13.72,0,0,13.72,0,30.64v129.78c0,5.6,4.53,10.13,10.13,10.13h146.69c5.22,0,9.87-3.44,11.2-8.48,11.6-43.92,51.58-76.42,99.1-76.42s87.5,32.5,99.1,76.42c1.33,5.05,5.99,8.48,11.2,8.48h146.69c5.6,0,10.13-4.54,10.13-10.13V30.64c0-16.92-13.72-30.64-30.64-30.64H30.64Z"/>
  </g>
</svg>